<?xml version="1.0" encoding="utf-8"?>
<!-- Generator: Adobe Illustrator 24.0.3, SVG Export Plug-In . SVG Version: 6.00 Build 0)  -->
<svg version="1.1" id="Layer_3_copy_2" xmlns="http://www.w3.org/2000/svg" xmlns:xlink="http://www.w3.org/1999/xlink" x="0px"
	 y="0px" viewBox="0 0 480.069 161.911" style="enable-background:new 0 0 480.069 161.911;" xml:space="preserve">
<style type="text/css">
	.st0{fill:url(#SVGID_1_);}
	.st1{fill:#006837;}
	.st2{fill:url(#SVGID_2_);}
</style>
<radialGradient id="SVGID_1_" cx="155.0126" cy="76.2078" r="120.6007" fx="275.4968" fy="81.5079" gradientTransform="matrix(-0.354 -0.9352 2.7535 -1.0423 -0.3412 302.9588)" gradientUnits="userSpaceOnUse">
	<stop  offset="0.1896" style="stop-color:#B6DDC9"/>
	<stop  offset="0.3647" style="stop-color:#26BC2D"/>
	<stop  offset="0.4495" style="stop-color:#00A99D"/>
	<stop  offset="0.6664" style="stop-color:#006837"/>
</radialGradient>
<path class="st0" d="M235.834,11.845c-0.537,4.305-1.237,8.329-2.029,12.048c-2.216,10.383-5.161,18.456-7.487,23.813
	c-0.886-0.255-1.375-0.446-2.648-0.605c-0.924-0.117-3.19-0.418-3.481,0.075c-0.335,0.56,2.747,1.102,4.578,3.89
	c-1.333,2.763-2.214,4.201-2.214,4.201c-3.421,5.249-7.136,9.908-11.009,14.036c-2.695-0.808-3.015-1.299-5.439-1.8
	c-1.227-0.246-4.264-0.875-4.614-0.085c-0.394,0.867,3.34,1.88,5.937,6.059c-9.427,9.034-19.373,15.292-27.761,19.862
	c-0.135-0.088-0.28-0.168-0.415-0.256c-7.144-4.36-12.298-7.535-15.917-9.602c-4.528-2.605-6.638-3.477-7.181-2.789
	c-0.51,0.63,0.838,2.006,3.146,4.854c1.787,2.215,4.159,5.327,6.675,9.671c0.833,1.434,1.603,2.754,2.316,4.021
	c-7.685,3.892-16.583,8.1-27.417,10.916c-3.366-3.074-10.628-7.151-15.728-9.581c-0.283-0.128-1.061-0.507-2.103-0.982
	c-3.419-1.574-9.646-4.244-10.423-3.03c-0.588,0.925,2.622,3.769,3.089,4.309c0.159,0.18,0.308,0.37,0.447,0.549
	c1.24,1.5,2.354,3.081,3.574,4.57c1.472,1.794,3.086,4.519,4.705,5.722c0.775,0.589,1.273,0.961,1.805,1.114
	c-1.069,0.114-2.167,0.216-3.275,0.298c-10.669,0.792-28.317,2.143-43.66-5.881c-0.777-0.389-1.542-0.817-2.296-1.264
	c-13.287-7.907-21.402-20.853-20.166-35.134c0.379-4.345,1.618-8.807,3.849-13.287c6.561-13.23,22.397-22.388,36.264-26.118
	c0.616,2.343,0.405,6.247-1.628,13.505c-0.026,0.099-0.062,0.197-0.089,0.305c-3.347,11.816-7.162,17.28-5.692,18.463
	c1.633,1.303,7.933-4.167,8.335-4.513c6.399-5.615,8.822-12.539,9.746-16.128c0.04-0.168,0.08-0.326,0.119-0.473
	c0.429-1.747,1.879-7.689,1.027-12.05c2.961,0.394,6.557,1.057,11.482,1.783c7.387,1.089,9.72,1.915,18.239,2.192
	c1.49,0.052,3.77,0.113,6.729,0.056c0.293,0.77,0.567,1.358,0.743,1.759c0.885,2.049,1.109,3.926,1.136,5.441
	c0.046,2.167-0.323,3.597,0.249,3.743c0.848,0.213,2.232-2.557,2.793-3.674c0.092-0.185,0.173-0.36,0.242-0.516
	c0.877-1.859,0.767-2.507,1.797-5.079c0.342-0.83,0.632-1.474,0.896-2.008c7.606-0.511,17.331-1.742,28.12-4.47
	c5.913-1.487,9.654-2.678,13.062-3.99c-0.044,0.388-0.061,0.818-0.019,1.281c0.062,0.625,0.164,0.742,0.546,2.028
	c0.008,0.031,0.016,0.061,0.024,0.092c0.696,2.348,1.082,3.724,0.957,5.419c-0.068,0.938-0.257,1.397-0.14,1.444
	c0.275,0.097,1.678-2.18,2.33-4.945c0.366-1.54,0.096-1.557,0.437-3.169c0.012-0.039,0.016-0.089,0.028-0.129
	c0.473-2.135,1.285-3.597,1.598-4.44c3.441-1.53,7.525-3.401,13.827-5.997c3.887-1.613,7.75-3.648,10.802-6.485
	c1.296-1.192,2.441-2.534,3.376-4.039c1.046-1.679,1.823-3.554,3.184-4.983c0.504-0.53,2.412-2.225,3.618-1.79
	c0.736,0.256,1.133,1.282,1.329,2.637C236.587,5.67,236.046,10.205,235.834,11.845z"/>
<g>
	<path class="st1" d="M2.05,161.136c-0.08,0.012-0.16,0.022-0.239,0.027c-0.26,0.018-0.536-0.039-0.733-0.21
		c-0.14-0.121-0.231-0.292-0.278-0.471c-0.092-0.348-0.025-0.722,0.114-1.055c0.138-0.332,0.344-0.631,0.542-0.932
		c3.779-5.745,6.827-11.995,10.537-17.808c10.971-17.191,23.091-35.633,39.794-47.792c21.918-15.954,50.309-19.109,77.25-22.129
		c33.816-3.791,75.093-10.556,93.436-43.167c1.651-3.226,3.13-6.684,4.405-10.384c-0.983,3.83-2.212,7.421-3.653,10.781
		c-6.092,13.06-15.916,22.231-27.715,28.853c-2.95,1.656-6.023,3.152-9.194,4.51c-18.6,7.66-38.939,10.056-58.726,12.66
		c-23.693,3.117-49.24,6.72-70.2,19.562c-13.131,8.045-21.91,20.438-29.694,33.407c-1.346,2.242-2.491,4.614-3.715,6.922
		c-1.928,3.634-3.901,7.245-6.013,10.776c-2.148,3.591-4.42,7.146-7.077,10.386c-0.726,0.885-1.381,1.801-2.196,2.614
		c-0.919,0.917-1.996,1.658-3.164,2.222c-0.579,0.28-1.177,0.517-1.786,0.723C3.217,160.807,2.618,161.049,2.05,161.136z"/>
	<path class="st1" d="M2.162,161.87c-0.397,0.078-1.189,0.104-1.715-0.484c-0.477-0.555-0.497-1.198-0.404-1.708
		c0.099-0.551,0.356-0.859,0.553-1.238c0.216-0.391,0.409-0.674,0.608-0.992c0.794-1.249,1.53-2.536,2.262-3.827l4.321-7.836
		c1.449-2.613,3.066-5.196,4.685-7.692c1.612-2.516,3.245-5.023,4.893-7.521c6.618-9.962,13.696-19.738,22.17-28.319
		c4.253-4.259,8.838-8.228,13.861-11.592c5-3.393,10.37-6.213,15.932-8.531c11.16-4.607,22.978-7.211,34.796-9.095
		c11.836-1.885,23.767-2.886,35.577-4.434c11.809-1.552,23.567-3.653,34.929-7.134c11.306-3.518,22.325-8.448,31.531-15.906
		c4.621-3.679,8.695-8.023,12.139-12.809c0.811-1.23,1.695-2.421,2.418-3.698l1.129-1.891c0.326-0.636,0.659-1.314,0.975-1.977
		c1.269-2.671,2.388-5.415,3.352-8.213c0.134-0.388,0.557-0.594,0.945-0.461c0.368,0.127,0.572,0.517,0.478,0.888
		c-0.745,2.902-1.655,5.763-2.74,8.559c-0.272,0.702-0.549,1.388-0.849,2.091c-0.308,0.695-0.66,1.358-0.988,2.039
		c-0.321,0.684-0.7,1.332-1.058,1.993c-0.353,0.664-0.727,1.315-1.127,1.951c-3.082,5.163-6.991,9.818-11.445,13.839
		c-4.446,4.042-9.449,7.424-14.707,10.279c-2.635,1.425-5.329,2.713-8.086,3.894c-2.779,1.111-5.575,2.169-8.417,3.079
		c-11.361,3.717-23.139,5.831-34.896,7.53c-11.769,1.691-23.569,2.993-35.254,4.943c-11.671,1.95-23.277,4.537-34.291,8.801
		c-5.497,2.133-10.838,4.679-15.859,7.755c-2.494,1.543-4.88,3.254-7.15,5.114c-2.262,1.871-4.384,3.909-6.408,6.041
		c-4.033,4.284-7.598,9.005-10.865,13.925c-1.636,2.459-3.214,4.961-4.739,7.498c-1.554,2.49-2.809,5.152-4.229,7.787l-4.352,7.8
		c-1.419,2.616-2.957,5.169-4.61,7.666c-0.825,1.248-1.686,2.477-2.588,3.677c-0.454,0.598-0.915,1.192-1.391,1.775l-1.398,1.742
		c-0.967,1.203-2.219,2.272-3.589,3.028c-0.683,0.403-1.421,0.647-2.138,0.949c-0.372,0.157-0.695,0.267-1.06,0.393
		C2.999,161.673,2.609,161.799,2.162,161.87z M1.937,160.401c0.556-0.095,1.317-0.378,1.97-0.639
		c0.648-0.276,1.33-0.496,1.928-0.853c1.227-0.685,2.276-1.573,3.173-2.682l1.389-1.731c0.463-0.566,0.912-1.145,1.356-1.729
		c0.88-1.173,1.724-2.376,2.536-3.604c1.624-2.454,3.153-4.989,4.564-7.591l4.325-7.752c1.396-2.588,2.678-5.307,4.269-7.858
		c1.532-2.551,3.123-5.072,4.774-7.554c3.297-4.966,6.912-9.756,11.02-14.12c2.062-2.172,4.229-4.252,6.542-6.166
		c2.321-1.903,4.767-3.657,7.323-5.238c5.107-3.128,10.528-5.712,16.096-7.872c11.156-4.318,22.859-6.922,34.584-8.881
		c11.739-1.959,23.553-3.262,35.287-4.948c11.723-1.694,23.417-3.797,34.647-7.472c2.812-0.9,5.571-1.945,8.304-3.037
		c2.7-1.156,5.367-2.431,7.954-3.831c5.17-2.808,10.073-6.124,14.417-10.074c4.353-3.931,8.164-8.468,11.169-13.504
		c0.39-0.621,0.755-1.256,1.099-1.903c0.348-0.644,0.72-1.279,1.029-1.939c0.316-0.656,0.661-1.305,0.954-1.967
		c0.282-0.662,0.562-1.352,0.826-2.034c1.062-2.739,1.955-5.544,2.686-8.392l1.422,0.427c-0.982,2.848-2.11,5.647-3.4,8.373
		c-0.325,0.685-0.648,1.349-1.002,2.042l-1.161,1.958c-0.747,1.325-1.643,2.54-2.474,3.803c-3.517,4.912-7.684,9.372-12.399,13.144
		c-9.399,7.647-20.596,12.673-32.026,16.259c-11.487,3.547-23.33,5.686-35.188,7.272c-11.871,1.58-23.764,2.611-35.524,4.501
		C92.668,76.698,80.99,79.3,70.04,83.842c-5.458,2.285-10.708,5.055-15.585,8.376c-4.899,3.292-9.384,7.186-13.559,11.38
		c-8.319,8.45-15.316,18.135-21.885,28.061c-1.637,2.489-3.259,4.99-4.865,7.505c-1.638,2.51-3.149,5.017-4.647,7.599
		c-1.484,2.579-2.985,5.167-4.558,7.725c-0.784,1.281-1.603,2.543-2.428,3.804c-0.203,0.311-0.432,0.645-0.578,0.907
		c-0.156,0.275-0.381,0.572-0.399,0.773c-0.053,0.21,0.008,0.392,0.032,0.41C1.56,160.376,1.618,160.456,1.937,160.401z"/>
</g>
<radialGradient id="SVGID_2_" cx="-87.5144" cy="91.2316" r="120.6007" fx="32.9698" fy="96.5318" gradientTransform="matrix(0.354 -0.9352 -2.7535 -1.0423 607.6382 91.7977)" gradientUnits="userSpaceOnUse">
	<stop  offset="0.1896" style="stop-color:#B6DDC9"/>
	<stop  offset="0.3647" style="stop-color:#26BC2D"/>
	<stop  offset="0.4495" style="stop-color:#00A99D"/>
	<stop  offset="0.6664" style="stop-color:#006837"/>
</radialGradient>
<path class="st2" d="M244.235,11.845c0.537,4.305,1.237,8.329,2.029,12.048c2.216,10.383,5.161,18.456,7.487,23.813
	c0.886-0.255,1.375-0.446,2.648-0.605c0.924-0.117,3.19-0.418,3.481,0.075c0.335,0.56-2.747,1.102-4.578,3.89
	c1.333,2.763,2.214,4.201,2.214,4.201c3.421,5.249,7.136,9.908,11.009,14.036c2.695-0.808,3.015-1.299,5.439-1.8
	c1.227-0.246,4.264-0.875,4.614-0.085c0.394,0.867-3.34,1.88-5.937,6.059c9.427,9.034,19.373,15.292,27.761,19.862
	c0.135-0.088,0.28-0.168,0.415-0.256c7.144-4.36,12.298-7.535,15.917-9.602c4.528-2.605,6.638-3.477,7.181-2.789
	c0.51,0.63-0.838,2.006-3.146,4.854c-1.787,2.215-4.159,5.327-6.675,9.671c-0.833,1.434-1.603,2.754-2.316,4.021
	c7.685,3.892,16.583,8.1,27.417,10.916c3.366-3.074,10.628-7.151,15.728-9.581c0.283-0.128,1.061-0.507,2.103-0.982
	c3.419-1.574,9.646-4.244,10.423-3.03c0.588,0.925-2.622,3.769-3.089,4.309c-0.159,0.18-0.308,0.37-0.447,0.549
	c-1.24,1.5-2.354,3.081-3.574,4.57c-1.472,1.794-3.086,4.519-4.705,5.722c-0.775,0.589-1.273,0.961-1.805,1.114
	c1.069,0.114,2.167,0.216,3.275,0.298c10.669,0.792,28.317,2.143,43.66-5.881c0.777-0.389,1.542-0.817,2.296-1.264
	c13.287-7.907,21.402-20.853,20.166-35.134c-0.379-4.345-1.618-8.807-3.849-13.287c-6.56-13.23-22.397-22.388-36.264-26.118
	c-0.616,2.343-0.405,6.247,1.628,13.505c0.026,0.099,0.062,0.197,0.089,0.305c3.347,11.816,7.162,17.28,5.692,18.463
	c-1.633,1.303-7.933-4.167-8.335-4.513c-6.399-5.615-8.822-12.539-9.746-16.128c-0.04-0.168-0.08-0.326-0.119-0.473
	c-0.429-1.747-1.879-7.689-1.027-12.05c-2.961,0.394-6.557,1.057-11.482,1.783c-7.387,1.089-9.72,1.915-18.239,2.192
	c-1.49,0.052-3.77,0.113-6.729,0.056c-0.293,0.77-0.567,1.358-0.743,1.759c-0.885,2.049-1.109,3.926-1.136,5.441
	c-0.046,2.167,0.323,3.597-0.249,3.743c-0.848,0.213-2.232-2.557-2.793-3.674c-0.092-0.185-0.173-0.36-0.242-0.516
	c-0.877-1.859-0.767-2.507-1.797-5.079c-0.342-0.83-0.632-1.474-0.896-2.008c-7.606-0.511-17.331-1.742-28.12-4.47
	c-5.913-1.487-9.654-2.678-13.062-3.99c0.044,0.388,0.061,0.818,0.019,1.281c-0.062,0.625-0.164,0.742-0.546,2.028
	c-0.008,0.031-0.016,0.061-0.024,0.092c-0.696,2.348-1.082,3.724-0.957,5.419c0.068,0.938,0.257,1.397,0.14,1.444
	c-0.275,0.097-1.678-2.18-2.33-4.945c-0.366-1.54-0.096-1.557-0.437-3.169c-0.012-0.039-0.016-0.089-0.028-0.129
	c-0.473-2.135-1.285-3.597-1.598-4.44c-3.441-1.53-7.525-3.401-13.827-5.997c-3.887-1.613-7.75-3.648-10.802-6.485
	c-1.296-1.192-2.441-2.534-3.376-4.039c-1.046-1.679-1.823-3.554-3.184-4.983c-0.504-0.53-2.412-2.225-3.618-1.79
	c-0.736,0.256-1.133,1.282-1.329,2.637C243.482,5.67,244.023,10.205,244.235,11.845z"/>
<g>
	<path class="st1" d="M478.019,161.136c0.08,0.012,0.16,0.022,0.239,0.027c0.26,0.018,0.536-0.039,0.733-0.21
		c0.14-0.121,0.231-0.292,0.278-0.471c0.092-0.348,0.025-0.722-0.114-1.055c-0.138-0.332-0.344-0.631-0.542-0.932
		c-3.78-5.745-6.827-11.995-10.537-17.808c-10.971-17.191-23.091-35.633-39.794-47.792c-21.918-15.954-50.309-19.109-77.25-22.129
		c-33.816-3.791-75.093-10.556-93.436-43.167c-1.651-3.226-3.13-6.684-4.405-10.384c0.983,3.83,2.212,7.421,3.653,10.781
		c6.092,13.06,15.916,22.231,27.715,28.853c2.95,1.656,6.023,3.152,9.194,4.51c18.6,7.66,38.939,10.056,58.726,12.66
		c23.693,3.117,49.24,6.72,70.2,19.562c13.131,8.045,21.91,20.438,29.694,33.407c1.346,2.242,2.491,4.614,3.715,6.922
		c1.928,3.634,3.901,7.245,6.013,10.776c2.148,3.591,4.42,7.146,7.077,10.386c0.726,0.885,1.381,1.801,2.196,2.614
		c0.919,0.917,1.996,1.658,3.164,2.222c0.579,0.28,1.177,0.517,1.786,0.723C476.852,160.807,477.452,161.049,478.019,161.136z"/>
	<path class="st1" d="M478.132,160.401c0.319,0.055,0.378-0.025,0.368-0.018c0.024-0.018,0.085-0.199,0.032-0.41
		c-0.018-0.201-0.243-0.499-0.399-0.773c-0.146-0.262-0.375-0.597-0.578-0.907c-0.825-1.26-1.644-2.523-2.428-3.804
		c-1.572-2.559-3.073-5.147-4.558-7.725c-1.498-2.582-3.009-5.089-4.647-7.599c-1.605-2.515-3.228-5.015-4.865-7.505
		c-6.569-9.926-13.565-19.611-21.885-28.061c-4.175-4.194-8.66-8.089-13.559-11.38c-4.877-3.321-10.127-6.092-15.585-8.376
		c-10.95-4.543-22.628-7.144-34.365-9.035c-11.761-1.89-23.653-2.922-35.524-4.501c-11.857-1.586-23.701-3.725-35.188-7.272
		c-11.43-3.586-22.627-8.612-32.026-16.259c-4.715-3.772-8.882-8.232-12.399-13.144c-0.831-1.263-1.727-2.478-2.474-3.803
		l-1.161-1.958c-0.354-0.693-0.677-1.356-1.002-2.042c-1.289-2.726-2.418-5.525-3.4-8.373l1.422-0.427
		c0.731,2.848,1.624,5.653,2.686,8.392c0.264,0.682,0.544,1.372,0.826,2.034c0.293,0.662,0.638,1.311,0.954,1.967
		c0.309,0.66,0.681,1.295,1.029,1.939c0.344,0.648,0.709,1.283,1.099,1.903c3.005,5.036,6.816,9.573,11.169,13.504
		c4.344,3.95,9.247,7.267,14.417,10.074c2.587,1.4,5.254,2.674,7.954,3.831c2.733,1.091,5.492,2.137,8.304,3.037
		c11.23,3.675,22.924,5.778,34.647,7.472c11.734,1.687,23.548,2.989,35.287,4.948c11.725,1.96,23.428,4.563,34.584,8.881
		c5.568,2.16,10.989,4.744,16.096,7.872c2.555,1.581,5.001,3.334,7.323,5.238c2.313,1.914,4.48,3.994,6.542,6.166
		c4.108,4.364,7.723,9.154,11.02,14.12c1.652,2.483,3.242,5.004,4.774,7.554c1.591,2.551,2.873,5.27,4.269,7.858l4.325,7.752
		c1.411,2.602,2.939,5.138,4.564,7.591c0.812,1.228,1.655,2.431,2.536,3.604c0.443,0.584,0.892,1.163,1.356,1.729l1.389,1.731
		c0.896,1.109,1.946,1.997,3.173,2.682c0.598,0.356,1.28,0.576,1.928,0.853C476.815,160.023,477.576,160.306,478.132,160.401z
		 M477.907,161.87c-0.447-0.071-0.837-0.197-1.202-0.322c-0.365-0.126-0.688-0.237-1.06-0.393c-0.717-0.302-1.455-0.547-2.138-0.949
		c-1.37-0.756-2.622-1.825-3.589-3.028l-1.398-1.742c-0.476-0.582-0.937-1.176-1.391-1.775c-0.902-1.201-1.763-2.429-2.588-3.677
		c-1.653-2.497-3.19-5.049-4.61-7.666l-4.352-7.8c-1.42-2.635-2.675-5.297-4.229-7.787c-1.525-2.538-3.103-5.039-4.739-7.498
		c-3.266-4.92-6.832-9.642-10.865-13.925c-2.024-2.132-4.147-4.169-6.408-6.041c-2.27-1.861-4.656-3.571-7.15-5.114
		c-5.021-3.076-10.362-5.622-15.859-7.755c-11.014-4.264-22.619-6.851-34.291-8.801c-11.686-1.951-23.486-3.252-35.254-4.943
		c-11.758-1.7-23.535-3.813-34.896-7.53c-2.843-0.91-5.638-1.968-8.417-3.079c-2.757-1.181-5.451-2.468-8.086-3.894
		c-5.258-2.855-10.261-6.237-14.707-10.279c-4.454-4.022-8.364-8.676-11.445-13.839c-0.4-0.637-0.774-1.288-1.127-1.951
		c-0.358-0.661-0.736-1.308-1.058-1.993c-0.328-0.68-0.68-1.344-0.988-2.039c-0.299-0.703-0.577-1.389-0.849-2.091
		c-1.085-2.796-1.995-5.658-2.74-8.559c-0.102-0.397,0.137-0.803,0.535-0.905c0.377-0.097,0.762,0.117,0.888,0.478
		c0.964,2.799,2.083,5.542,3.352,8.213c0.316,0.663,0.649,1.341,0.975,1.977l1.129,1.891c0.722,1.277,1.606,2.469,2.418,3.698
		c3.444,4.786,7.518,9.13,12.139,12.809c9.206,7.458,20.225,12.388,31.531,15.906c11.362,3.481,23.12,5.582,34.929,7.134
		c11.81,1.548,23.741,2.549,35.577,4.434c11.818,1.884,23.636,4.488,34.796,9.095c5.562,2.317,10.933,5.138,15.932,8.531
		c5.023,3.364,9.607,7.333,13.861,11.592c8.475,8.581,15.552,18.356,22.17,28.319c1.648,2.498,3.281,5.005,4.893,7.521
		c1.619,2.496,3.235,5.079,4.685,7.692l4.321,7.836c0.733,1.291,1.469,2.579,2.262,3.827c0.199,0.318,0.392,0.6,0.608,0.992
		c0.196,0.378,0.454,0.686,0.553,1.238c0.093,0.511,0.072,1.153-0.404,1.708C479.096,161.974,478.304,161.949,477.907,161.87z"/>
</g>
<g>
</g>
<g>
</g>
<g>
</g>
<g>
</g>
<g>
</g>
</svg>
