<svg xmlns="http://www.w3.org/2000/svg" xmlns:xlink="http://www.w3.org/1999/xlink" viewBox="0 0 121.741 92.721">
  <defs>
    <style>
      .cls-1 {
        fill: url(#radial-gradient);
      }

      .cls-2 {
        fill: url(#linear-gradient);
      }

      .cls-3 {
        fill: #070a03;
      }

      .cls-4 {
        fill: url(#linear-gradient-2);
      }

      .cls-5 {
        fill: url(#linear-gradient-3);
      }

      .cls-6 {
        fill: url(#linear-gradient-4);
      }

      .cls-7 {
        fill: url(#linear-gradient-5);
      }

      .cls-8 {
        fill: url(#linear-gradient-6);
      }

      .cls-9 {
        fill: url(#linear-gradient-7);
      }

      .cls-10 {
        fill: url(#linear-gradient-8);
      }

      .cls-11 {
        fill: url(#linear-gradient-9);
      }

      .cls-12 {
        fill: url(#linear-gradient-10);
      }

      .cls-13 {
        fill: url(#linear-gradient-11);
      }

      .cls-14 {
        fill: url(#linear-gradient-12);
      }

      .cls-15 {
        fill: url(#radial-gradient-2);
      }

      .cls-16 {
        fill: url(#linear-gradient-13);
      }

      .cls-17 {
        fill: url(#linear-gradient-14);
      }

      .cls-18 {
        fill: url(#radial-gradient-3);
      }

      .cls-19 {
        fill: #006c78;
        opacity: 0.76;
      }

      .cls-20 {
        fill: url(#linear-gradient-15);
      }

      .cls-21 {
        fill: url(#linear-gradient-16);
      }

      .cls-22 {
        fill: url(#linear-gradient-17);
      }

      .cls-23 {
        fill: url(#radial-gradient-4);
      }

      .cls-24 {
        fill: url(#radial-gradient-5);
      }

      .cls-25 {
        fill: #fff;
      }

      .cls-26 {
        fill: url(#linear-gradient-18);
      }
    </style>
    <radialGradient id="radial-gradient" cx="29.282" cy="80.954" r="42.028" gradientTransform="translate(-3.415 1.914) rotate(-3.538)" gradientUnits="userSpaceOnUse">
      <stop offset="0.285" stop-color="#754c24"/>
      <stop offset="0.503" stop-color="#8c6239"/>
      <stop offset="0.743" stop-color="#603813"/>
    </radialGradient>
    <linearGradient id="linear-gradient" x1="24.864" y1="66.65" x2="33.295" y2="89.813" gradientTransform="translate(-3.415 1.914) rotate(-3.538)" gradientUnits="userSpaceOnUse">
      <stop offset="0.172" stop-color="#8c6239"/>
      <stop offset="0.551" stop-color="#754c24" stop-opacity="0.37"/>
      <stop offset="0.743" stop-color="#603813"/>
    </linearGradient>
    <linearGradient id="linear-gradient-2" x1="48.342" y1="68.412" x2="53.529" y2="68.412" gradientTransform="translate(-3.415 1.914) rotate(-3.538)" gradientUnits="userSpaceOnUse">
      <stop offset="0.257" stop-color="#7dacc0"/>
      <stop offset="0.904" stop-color="#08689e"/>
    </linearGradient>
    <linearGradient id="linear-gradient-3" x1="65.62" y1="70.4" x2="67.688" y2="70.4" gradientTransform="matrix(0.977, -0.215, 0.215, 0.977, -31.284, 20.975)" xlink:href="#linear-gradient-2"/>
    <linearGradient id="linear-gradient-4" x1="-34.987" y1="175.697" x2="-32.847" y2="175.697" gradientTransform="matrix(0.552, 0.715, -0.68, 0.526, 191.16, 6.566)" xlink:href="#linear-gradient-2"/>
    <linearGradient id="linear-gradient-5" x1="48.532" y1="76.269" x2="51.596" y2="76.269" xlink:href="#linear-gradient-2"/>
    <linearGradient id="linear-gradient-6" x1="47.95" y1="75.424" x2="51.875" y2="75.424" xlink:href="#linear-gradient-2"/>
    <linearGradient id="linear-gradient-7" x1="60.405" y1="70.458" x2="62.948" y2="70.458" gradientTransform="translate(-24.895 16.214) rotate(-10.438)" xlink:href="#linear-gradient-2"/>
    <linearGradient id="linear-gradient-8" x1="50.652" y1="75.048" x2="53.263" y2="75.048" xlink:href="#linear-gradient-2"/>
    <linearGradient id="linear-gradient-9" x1="55.067" y1="71.042" x2="58.004" y2="71.042" gradientTransform="translate(-17.952 11.236) rotate(-8.227)" xlink:href="#linear-gradient-2"/>
    <linearGradient id="linear-gradient-10" x1="47.591" y1="74.23" x2="51.686" y2="74.23" xlink:href="#linear-gradient-2"/>
    <linearGradient id="linear-gradient-11" x1="50.474" y1="73.567" x2="52.895" y2="73.567" xlink:href="#linear-gradient-2"/>
    <linearGradient id="linear-gradient-12" x1="44.391" y1="71.225" x2="55.503" y2="71.225" xlink:href="#linear-gradient-2"/>
    <radialGradient id="radial-gradient-2" cx="51.417" cy="50.31" r="7.686" gradientTransform="translate(146.49 -20.48) rotate(79.793) scale(1 2.112)" gradientUnits="userSpaceOnUse">
      <stop offset="0.08" stop-color="#d23c25"/>
      <stop offset="0.19" stop-color="#a53217"/>
      <stop offset="0.382" stop-color="#582200"/>
    </radialGradient>
    <linearGradient id="linear-gradient-13" x1="30.296" y1="27.374" x2="67.904" y2="32.41" gradientTransform="translate(-3.415 1.914) rotate(-3.538)" gradientUnits="userSpaceOnUse">
      <stop offset="0" stop-color="#d1dd00"/>
      <stop offset="0.306" stop-color="#ece84d"/>
      <stop offset="0.499" stop-color="#fdf07f"/>
      <stop offset="0.604" stop-color="#fcef7c"/>
      <stop offset="0.692" stop-color="#faee71"/>
      <stop offset="0.773" stop-color="#f5eb60"/>
      <stop offset="0.85" stop-color="#efe648"/>
      <stop offset="0.925" stop-color="#e8e128"/>
      <stop offset="0.997" stop-color="#deda02"/>
      <stop offset="1" stop-color="#deda00"/>
    </linearGradient>
    <linearGradient id="linear-gradient-14" x1="5.268" y1="24.79" x2="39.066" y2="37.735" gradientTransform="translate(-3.415 1.914) rotate(-3.538)" gradientUnits="userSpaceOnUse">
      <stop offset="0.052" stop-color="#20bad5"/>
      <stop offset="0.137" stop-color="#1db7d3"/>
      <stop offset="0.208" stop-color="#12aecb"/>
      <stop offset="0.274" stop-color="#019fbf"/>
      <stop offset="0.277" stop-color="#009ebe"/>
      <stop offset="0.312" stop-color="#2bae99"/>
      <stop offset="0.368" stop-color="#6ac663"/>
      <stop offset="0.419" stop-color="#9bd838"/>
      <stop offset="0.463" stop-color="#bfe61a"/>
      <stop offset="0.499" stop-color="#d5ee07"/>
      <stop offset="0.522" stop-color="#ddf100"/>
      <stop offset="0.53" stop-color="#d7f100"/>
      <stop offset="0.559" stop-color="#c6f000"/>
      <stop offset="0.595" stop-color="#bbf000"/>
      <stop offset="0.646" stop-color="#b4f000"/>
      <stop offset="0.787" stop-color="#b2f000"/>
      <stop offset="0.794" stop-color="#a9e400"/>
      <stop offset="0.81" stop-color="#99ce00"/>
      <stop offset="0.829" stop-color="#8cbd00"/>
      <stop offset="0.853" stop-color="#83b200"/>
      <stop offset="0.886" stop-color="#7eab00"/>
      <stop offset="0.978" stop-color="#7da900"/>
    </linearGradient>
    <radialGradient id="radial-gradient-3" cx="14.355" cy="29.617" r="12.147" gradientTransform="translate(-3.415 1.914) rotate(-3.538)" gradientUnits="userSpaceOnUse">
      <stop offset="0.011" stop-color="#ae1930"/>
      <stop offset="0.055" stop-color="#ab1932"/>
      <stop offset="0.092" stop-color="#a01738"/>
      <stop offset="0.098" stop-color="#9e173a"/>
      <stop offset="0.141" stop-color="#8e223c"/>
      <stop offset="0.197" stop-color="#832b3e"/>
      <stop offset="0.276" stop-color="#7c303f"/>
      <stop offset="0.496" stop-color="#7a313f"/>
      <stop offset="0.614" stop-color="#7d313e"/>
      <stop offset="0.712" stop-color="#88333b"/>
      <stop offset="0.804" stop-color="#993536"/>
      <stop offset="0.891" stop-color="#b1382f"/>
      <stop offset="0.974" stop-color="#d03c25"/>
      <stop offset="0.978" stop-color="#d23c25"/>
    </radialGradient>
    <linearGradient id="linear-gradient-15" x1="10.824" y1="16.036" x2="23.319" y2="35.341" gradientTransform="translate(-3.415 1.914) rotate(-3.538)" gradientUnits="userSpaceOnUse">
      <stop offset="0.004" stop-color="#e8edd5"/>
      <stop offset="0.005" stop-color="#e8edd1"/>
      <stop offset="0.03" stop-color="#e5ee92"/>
      <stop offset="0.053" stop-color="#e2ef5e"/>
      <stop offset="0.075" stop-color="#e0f035"/>
      <stop offset="0.095" stop-color="#def118"/>
      <stop offset="0.112" stop-color="#ddf106"/>
      <stop offset="0.124" stop-color="#ddf100"/>
      <stop offset="0.229" stop-color="#daf100"/>
      <stop offset="0.316" stop-color="#cff100"/>
      <stop offset="0.396" stop-color="#bef000"/>
      <stop offset="0.438" stop-color="#b2f000"/>
    </linearGradient>
    <linearGradient id="linear-gradient-16" x1="1.691" y1="31.377" x2="16.178" y2="35.939" gradientTransform="translate(-3.415 1.914) rotate(-3.538)" gradientUnits="userSpaceOnUse">
      <stop offset="0.017" stop-color="#9e173a"/>
      <stop offset="0.148" stop-color="#92203c"/>
      <stop offset="0.4" stop-color="#802c3e"/>
      <stop offset="0.583" stop-color="#7a313f"/>
      <stop offset="1" stop-color="#ae1930"/>
    </linearGradient>
    <linearGradient id="linear-gradient-17" x1="18.631" y1="19.418" x2="26.977" y2="25.572" gradientTransform="translate(-3.415 1.914) rotate(-3.538)" gradientUnits="userSpaceOnUse">
      <stop offset="0.004" stop-color="#f87500"/>
      <stop offset="0.111" stop-color="#fd7600"/>
      <stop offset="0.466" stop-color="#ff7600"/>
      <stop offset="0.612" stop-color="#fc7a11"/>
      <stop offset="0.817" stop-color="#f87e22"/>
      <stop offset="0.968" stop-color="#f78028"/>
    </linearGradient>
    <radialGradient id="radial-gradient-4" cx="38.332" cy="11.918" r="1.976" gradientTransform="translate(-3.415 1.914) rotate(-3.538)" gradientUnits="userSpaceOnUse">
      <stop offset="0.37" stop-color="#5a6610"/>
      <stop offset="0.661" stop-color="#2f4d00"/>
      <stop offset="0.722" stop-color="#2f4a00"/>
      <stop offset="0.774" stop-color="#2f3f01"/>
      <stop offset="0.812" stop-color="#2f3201"/>
    </radialGradient>
    <radialGradient id="radial-gradient-5" cx="38.207" cy="12.028" r="0.751" gradientTransform="translate(-3.415 1.914) rotate(-3.538)" gradientUnits="userSpaceOnUse">
      <stop offset="0.067" stop-color="#1f334e"/>
      <stop offset="0.709" stop-color="#1a1a1a"/>
    </radialGradient>
    <linearGradient id="linear-gradient-18" x1="87.153" y1="79.866" x2="85.919" y2="9.426" gradientUnits="userSpaceOnUse">
      <stop offset="0" stop-color="#26bc2d"/>
      <stop offset="0.377" stop-color="#00a99d"/>
      <stop offset="0.496" stop-color="#009983"/>
      <stop offset="0.77" stop-color="#00764c"/>
      <stop offset="0.902" stop-color="#006837"/>
    </linearGradient>
  </defs>
  <g id="Layer_2_copy" data-name="Layer 2 copy">
    <g id="Layer_25_copy" data-name="Layer 25 copy">
      <g id="Layer_30_copy" data-name="Layer 30 copy">
        <path class="cls-1" d="M56.9,68.767c.025.406-7.469,2.552-8.219,2.8a75.985,75.985,0,0,1-8.184,2.543,25.249,25.249,0,0,0-5.514,1.4,59.272,59.272,0,0,1-5.425,2.5c-2.763.943-5.912,2.7-8.9,2.075-1.893-.395-3.968-1.319-5.615-1.61-.261-.046-.582-.068-.738.147a.5.5,0,0,0,.072.595,1.419,1.419,0,0,0,.549.332c1.447.592,3.28.885,4.662,1.594a.23.23,0,0,1,.039.378C17.834,83,15.5,83.777,13.548,85A21.746,21.746,0,0,1,9.22,86.916c-1.477.534-2.985.972-4.5,1.388a.394.394,0,0,0-.074.731,1.109,1.109,0,0,0,.673.11,7.785,7.785,0,0,0,1.074-.262c1.013-.28,2.014-.609,3.012-.936s2.009-.67,3.016-.994a9.01,9.01,0,0,1,1.41-.442.336.336,0,0,1,.372.232c.423,1.452-1.927,3.781-2.946,5.524a.3.3,0,0,0,.441.393,15.372,15.372,0,0,0,3.956-4.429,6.65,6.65,0,0,1,.791-1.183A4.846,4.846,0,0,1,17.6,86.2c4.184-2.429,9.028-2.8,13.523-4.418,4.97-1.786,3.821-2.137,9.241-3.642,8.707-2.417,16.88-3.775,16.88-3.775s-.028-.142-.116-1.886C56.974,69.452,56.87,68.317,56.9,68.767Z"/>
      </g>
      <path class="cls-2" d="M56.9,68.767c.025.406-7.469,2.552-8.219,2.8a75.985,75.985,0,0,1-8.184,2.543,25.249,25.249,0,0,0-5.514,1.4,59.272,59.272,0,0,1-5.425,2.5c-2.763.943-5.912,2.7-8.9,2.075-1.893-.395-3.968-1.319-5.615-1.61-.261-.046-.582-.068-.738.147a.5.5,0,0,0,.072.595,1.419,1.419,0,0,0,.549.332c1.447.592,3.28.885,4.662,1.594a.23.23,0,0,1,.039.378C17.834,83,15.5,83.777,13.548,85A21.746,21.746,0,0,1,9.22,86.916c-1.477.534-2.985.972-4.5,1.388a.394.394,0,0,0-.074.731,1.109,1.109,0,0,0,.673.11,7.785,7.785,0,0,0,1.074-.262c1.013-.28,2.014-.609,3.012-.936s2.009-.67,3.016-.994a9.01,9.01,0,0,1,1.41-.442.336.336,0,0,1,.372.232c.423,1.452-1.927,3.781-2.946,5.524a.3.3,0,0,0,.441.393,15.372,15.372,0,0,0,3.956-4.429,6.65,6.65,0,0,1,.791-1.183A4.846,4.846,0,0,1,17.6,86.2c4.184-2.429,9.028-2.8,13.523-4.418,4.97-1.786,3.821-2.137,9.241-3.642,8.707-2.417,16.88-3.775,16.88-3.775s-.028-.142-.116-1.886C56.974,69.452,56.87,68.317,56.9,68.767Z"/>
    </g>
    <g id="body_copy" data-name="body copy">
      <path class="cls-3" d="M56.555,62.987l.061.987c-.416-.018-.917-.048-1.055-.058a.1.1,0,0,0-.035,0s.287-.682.725-.833c.069-.023.16-.051.16-.051l.019-.007Z"/>
      <path class="cls-3" d="M53.686,16.571l2.62,42.379c.014.285.04.7.076,1.289.027.429.059.946.1,1.559l.006.1c0,.077.009.2.019.356s.017.234.029.422l.023.382-.115.034-.018.007-.147.047c-.4.14-.668.775-.668.775h-.042a10.062,10.062,0,0,1-1.8-.216.039.039,0,0,1,0,.015v0c-.214,3.076-1.378,5.409-2.946,5.756a2.43,2.43,0,0,1-1.288-.1c-1.226-.467-1.685-1.939-2.194-3.785a26.26,26.26,0,0,1-.793-3.137A11.524,11.524,0,0,0,44.7,57.607c-.424-.708-.8-1.457-1.225-2.168-.8-1.333-1.651-2.633-2.475-3.95-.818-1.3-1.613-2.624-2.308-4-.229-.457-.449-.918-.654-1.386a50.522,50.522,0,0,1-3.7-13.348C33.487,26.43,25.4,9.129,25.4,9.129a5.636,5.636,0,0,1,2.483-2.081,18.959,18.959,0,0,1,4.779-1.472c1.333-.082,4.883-.791,8.262,1.04s4.965,3.7,7.018,5.2S53.642,16.574,53.686,16.571Z"/>
    </g>
    <g id="foot_copy" data-name="foot copy">
      <path class="cls-4" d="M49.818,66.525a2.049,2.049,0,0,1,.939-.7,1.24,1.24,0,0,1,1.76,1.43A2.239,2.239,0,0,1,52,68.327c-.134.111-.31.058-.474.068l-1.992-1.44A4.121,4.121,0,0,1,49.818,66.525Z"/>
      <g id="Layer_19_copy" data-name="Layer 19 copy">
        <path class="cls-5" d="M48.043,75.15a1.743,1.743,0,0,0,.172.521.919.919,0,0,0,.147.227.759.759,0,0,0,.539.267.5.5,0,0,0,.354-.1c.19-.178.1-.524.057-.716-.062-.253-.142-.574-.393-.666A.816.816,0,0,0,48.043,75.15Z"/>
        <path class="cls-6" d="M52.969,73.765a1,1,0,0,0-.644.406,1.056,1.056,0,0,0-.139.882c.147.512.948-.14,1.149-.3a.451.451,0,0,0,.184-.241.471.471,0,0,0-.045-.269,1.794,1.794,0,0,0-.245-.424.169.169,0,0,0-.06-.056.161.161,0,0,0-.078-.011A.989.989,0,0,0,52.969,73.765Z"/>
        <path class="cls-7" d="M50,74.649a1.247,1.247,0,0,0,.237.845,1.392,1.392,0,0,0,1.2.421.434.434,0,0,0,.205-.088c.357-.3.073-1.286-.038-1.65a.341.341,0,0,0-.094-.169.337.337,0,0,0-.245-.044,7.57,7.57,0,0,0-1.036.154.276.276,0,0,0-.131.056.266.266,0,0,0-.064.161A2.492,2.492,0,0,0,50,74.649Z"/>
      </g>
      <g id="Layer_18_copy" data-name="Layer 18 copy">
        <path class="cls-8" d="M49.427,73.294a.074.074,0,0,0-.014.05,4.076,4.076,0,0,0,.558,1.712,1.082,1.082,0,0,0,.424.382c.533.248,1.5-.072,1.383-.766q-.1-.624-.264-1.237c-.078-.3-.133-.615-.475-.685a1.5,1.5,0,0,0-.787.123,4.11,4.11,0,0,0-.52.234A.932.932,0,0,0,49.427,73.294Z"/>
        <path class="cls-9" d="M47.457,74.23a6.458,6.458,0,0,0,.336.933c.122.193.575.2.861-.008s.432-.351.364-.6a2.424,2.424,0,0,0-.552-1c-.222-.152-.965.025-.98.18S47.457,74.23,47.457,74.23Z"/>
        <path class="cls-10" d="M51.994,72.8a1.835,1.835,0,0,0-.011.257,8.45,8.45,0,0,0,.071.871,1.136,1.136,0,0,0,.3.711.824.824,0,0,0,1.082,0,.371.371,0,0,0,.1-.138.46.46,0,0,0,.018-.143,3.122,3.122,0,0,0-.042-.723,5.187,5.187,0,0,0-.225-.675,1.618,1.618,0,0,0-.145-.313c-.071-.112-.156-.226-.291-.234a2.073,2.073,0,0,0-.3.018c-.156.013-.311.03-.465.053A1.025,1.025,0,0,0,51.994,72.8Z"/>
      </g>
      <g id="Layer_17_copy" data-name="Layer 17 copy">
        <path class="cls-11" d="M46.98,73.422a2.71,2.71,0,0,0,.3.67.3.3,0,0,0,.176.158.306.306,0,0,0,.174-.033l.808-.32a.508.508,0,0,0,.249-.149.405.405,0,0,0,0-.277,5.712,5.712,0,0,0-.133-.561.277.277,0,0,0-.079-.144.291.291,0,0,0-.249-.013l-1.17.3c-.05.013-.108.032-.126.08a.157.157,0,0,0,0,.091C46.945,73.292,46.961,73.357,46.98,73.422Z"/>
        <path class="cls-12" d="M49.13,72.518a.34.34,0,0,0-.084.351,1.619,1.619,0,0,0,.229.645c.3.425.774.27,1.178.126.234-.083.752-.16.912-.362a.376.376,0,0,0,.061-.226,1.23,1.23,0,0,0-.09-.571c-.2-.416-.572-.374-.943-.277a5.276,5.276,0,0,1-.635.186A1.17,1.17,0,0,0,49.13,72.518Z"/>
        <path class="cls-13" d="M51.733,71.87c.006-.015-.017-.023-.025-.02.023.116.058.285.111.488a1.236,1.236,0,0,0,.163.462.806.806,0,0,0,1.1-.231.842.842,0,0,0-.038-.7.684.684,0,0,0-.314-.413,1.053,1.053,0,0,0-.742.046A.9.9,0,0,0,51.733,71.87Z"/>
      </g>
      <path class="cls-14" d="M46.406,71.338a4.206,4.206,0,0,1,.527-2.76A3.707,3.707,0,0,1,49.2,66.916a2.716,2.716,0,0,1,2.467,1.212,4.51,4.51,0,0,1,.651,1.513c.075.266.146.534.234.8s.234.506.3.769c.163.645-.529.8-1.02.794a.115.115,0,0,1-.055-.01.122.122,0,0,1-.031-.029,3.589,3.589,0,0,1-.361-.513c-.042-.071-.082-.143-.124-.214s-.058-.114-.066-.114a3.526,3.526,0,0,1,.092.464.888.888,0,0,1-.2.721,1.6,1.6,0,0,1-.4.29,2.49,2.49,0,0,1-.753.3,1.073,1.073,0,0,1-1.22-.643,1.012,1.012,0,0,1-.121-.464c-.027.107.075.345.07.471a.841.841,0,0,1-.319.663,1.61,1.61,0,0,1-.433.216,1.694,1.694,0,0,1-.537.12c-.825.015-.848-1.028-.928-1.619C46.428,71.536,46.416,71.437,46.406,71.338Z"/>
    </g>
    <g id="chest_copy" data-name="chest copy">
      <g id="Layer_13_copy" data-name="Layer 13 copy">
        <path class="cls-15" d="M55.571,47.066l.108,1.75a11.475,11.475,0,0,1-1.672.982,12.522,12.522,0,0,1-6.575,1.079,7.383,7.383,0,0,1-4.016-1.459,10.607,10.607,0,0,1-1.477-1.612c-.086-.116-.473-.844-.613-.867a11.086,11.086,0,0,1,2.712,1.008c1.673.831,2.841.662,6.958.551,3.988-.107,3.321-2.454,3.276-2.6C54.709,46.285,55.14,46.677,55.571,47.066Z"/>
      </g>
      <path class="cls-16" d="M53.965,21.09l1.6,25.964a19.862,19.862,0,0,1-4.849,2.623c-7,2.166-12.515-4.049-15.036-9.771-2.993-6.8-5.524-13.828-8.022-20.821L26.522,16s.537-6.668.5-7.3c-.081-1.321,7.76-2.254,8.692-2.2,4.114.213,6.7,2.966,9.275,5.8,1.456,1.6,3.408,2.612,5.063,3.979A20.967,20.967,0,0,1,53.965,21.09Z"/>
    </g>
    <g id="around_beak_copy" data-name="around beak copy">
      <path class="cls-3" d="M26.661,7.417a4.138,4.138,0,0,0,.722.205c2.16.777,3.5,2.733,4.451,4.711a32.46,32.46,0,0,1,3.037,7.408,5.364,5.364,0,0,1,.349,1.745c-.058.194-.384.4-.534.529-.546.48-1.1.951-1.667,1.407-.864.694-2.146,1.964-3.324,2.037-1.294.03,1.548-6.839,1.548-6.839Z"/>
    </g>
    <g id="bottom_beak_copy" data-name="bottom beak copy">
      <path class="cls-17" d="M34.214,20.973c.05.813.067,1.084-1.063,1.878-1.2.85-2.345,1.787-3.529,2.662-1.891,1.4-4.1,1.89-6.217,2.8a57.219,57.219,0,0,0-6.434,3.348A90.181,90.181,0,0,0,8.549,37.1a18.553,18.553,0,0,0-3.714,3.481c-1.509,2-2.048,2.779-1.9,3.427v0a.222.222,0,0,1,0,.068c-.012,0-.567-1.4-.628-1.574-.559-1.554,1.413-7.035,8.444-13.138.391-.342.8-.683,1.221-1.027.859-.7,3.334-2.282,8.282-5.45,4.441-2.845,7.606-4.75,11.963-4.99.505-.025.921-.025,1.2-.021A21.26,21.26,0,0,1,34.214,20.973Z"/>
      <g id="Layer_7_copy" data-name="Layer 7 copy">
        <path class="cls-18" d="M8.061,34.481A11.4,11.4,0,0,0,6.8,35.936c-.236.34-.409.878-.066,1.11a.785.785,0,0,0,.382.1,6.784,6.784,0,0,0,1.4-.029,19.442,19.442,0,0,0-5.073,5.386,2.4,2.4,0,0,0-.517,1.54c-.229-.5-.439-1.023-.619-1.543-.514-1.483.656-3.562,1.337-4.793a25.306,25.306,0,0,1,2.707-3.893c.626-.754,1.287-1.478,1.973-2.176a11.232,11.232,0,0,1,2.4-2.2C11.305,31.43,9.282,33.243,8.061,34.481Z"/>
      </g>
      <g id="Layer_9_copy" data-name="Layer 9 copy">
        <path class="cls-19" d="M7.56,35.215l.285.839a3.671,3.671,0,0,0,.065-1.769,3.192,3.192,0,0,0-1.274-2.046,8.682,8.682,0,0,0-1.118-.5h0Z"/>
        <path class="cls-19" d="M7.467,30.871a2.629,2.629,0,0,1,1.41,1.515c.594,1.279.917,1.888.917,1.888a4.331,4.331,0,0,0-.063-1.025c-.1-.738-.224-2.186-1.224-2.884a4.685,4.685,0,0,0-2.261-.734Z"/>
        <path class="cls-19" d="M8.6,29.531a8.941,8.941,0,0,1,1.819,2.56l.4,1.153a3.781,3.781,0,0,0-.283-1.92,8.709,8.709,0,0,0-1.74-2.8,3.012,3.012,0,0,0-1.227-.386Z"/>
        <path class="cls-19" d="M10.835,29.483a3.513,3.513,0,0,1,1.5,1.584s.031.074.417,1.137h0a4.685,4.685,0,0,0-.187-2.155,5.43,5.43,0,0,0-.947-1.634,10.242,10.242,0,0,0-1.968-1.969l.442,2.126Z"/>
        <path class="cls-19" d="M11.94,26.985a4.258,4.258,0,0,1,1.724,1.21,4.32,4.32,0,0,1,1.005,2.574,3.785,3.785,0,0,0,.192-2.359A4.334,4.334,0,0,0,13.845,26.7a12.289,12.289,0,0,0-2.424-2.2h0Z"/>
        <path class="cls-19" d="M13.7,24.365c.237,1.155,1.288,1.542,2.123,2.6a5.13,5.13,0,0,1,.948,2,5.007,5.007,0,0,0,.094-1.476,4.212,4.212,0,0,0-1.415-3.013,3.64,3.64,0,0,0-1.789-.743A2.293,2.293,0,0,0,13.7,24.365Z"/>
        <path class="cls-19" d="M15.775,22.749c-.029.206.148.207.91,1.11.6.707.441.554.9,1.095.729.86.958,1.052,1.059,1.492a1.884,1.884,0,0,1-.011.849,3.384,3.384,0,0,0,.548-2.794,5.911,5.911,0,0,0-1.119-1.754c-.283-.366-.558-.678-1.051-1.236-.377-.426-.7-.773-.917-1.013C16.094,20.5,15.786,22.674,15.775,22.749Z"/>
        <path class="cls-19" d="M17.9,20.044c-.036.407.418.659,1.652,1.771a7.533,7.533,0,0,1,1.3,1.329,3.82,3.82,0,0,1,.534,2.255,4.135,4.135,0,0,0,.559-2.322,4.75,4.75,0,0,0-3.157-3.889C18.065,19.523,17.914,19.836,17.9,20.044Z"/>
        <path class="cls-19" d="M22.125,19.726a4.685,4.685,0,0,0,1.01,1c.344.3.691.913.612,2.293a1.24,1.24,0,0,0,.542-.85,2.85,2.85,0,0,0-.024-.97,4.167,4.167,0,0,0-2.759-3.328q.163.648.326,1.3A1.611,1.611,0,0,0,22.125,19.726Z"/>
      </g>
    </g>
    <g id="top_beak_copy" data-name="top beak copy">
      <path class="cls-20" d="M33.418,17.877a25.541,25.541,0,0,0-4.354,1.274c-.423.165-.84.332-1.259.514h0a.317.317,0,0,1-.038.017q-.529.227-1.052.472-.689.321-1.368.665c-.174.087-.349.175-.52.265s-.349.178-.52.271q-.6.31-1.187.636c-.433.233-.861.472-1.291.714-.37.205-.738.414-1.108.622s-.732.414-1.1.622c-.293.166-.586.331-.876.5-.322.185-.644.372-.962.563l-.02.013c-.247.148-.5.3-.741.453-.117.069-.233.141-.349.216-.506.314-1,.642-1.49.979l-.009.007a.107.107,0,0,1-.019.013q-.251.174-.492.348c-.034.023-.065.046-.1.071q-.241.174-.479.357a.6.6,0,0,0-.053.039q-.474.355-.927.738c-.1.083-.2.172-.3.257-.07.058-.14.121-.21.181-.394.346-.779.706-1.151,1.074-.214.21-.422.421-.627.637-.08.081-.157.166-.235.25-.121.128-.243.26-.364.394-.135.153-.271.3-.4.455-.1.112-.2.228-.294.343a77.507,77.507,0,0,0-5.458,7.541,7.688,7.688,0,0,0-1.143,2.211,6.123,6.123,0,0,0,.154,3.065,2.2,2.2,0,0,1,.065,1.193c-.034.075-.067.116-.113.13-.39.119-1.469-2.258-1.907-3.384a17.7,17.7,0,0,1-1.1-7.186C.214,31.249,1.985,26.473,4.8,22.1a36.446,36.446,0,0,1,7.168-8.21,29.566,29.566,0,0,1,6.705-4.312c2.03-1.006,5.052-2.673,7.4-2.311A3.422,3.422,0,0,1,27,7.556a5.96,5.96,0,0,1,1.452,1.027C31.068,10.989,32.291,14.51,33.418,17.877Z"/>
      <path class="cls-21" d="M9.818,31.5c-.1.112-.2.228-.294.343a77.507,77.507,0,0,0-5.458,7.541,7.688,7.688,0,0,0-1.143,2.211,6.123,6.123,0,0,0,.154,3.065,2.2,2.2,0,0,1,.065,1.193c-.034.075-.067.116-.113.13-.39.119-1.469-2.258-1.907-3.384a17.7,17.7,0,0,1-1.1-7.186C.214,31.249,1.985,26.473,4.8,22.1c1.77.84,2.125,2.483,3.307,5.62.078.211.162.427.249.648.067.176.14.357.213.541.276.685.528,1.241.753,1.687C9.5,30.961,9.668,31.26,9.818,31.5Z"/>
      <g id="Layer_5_copy" data-name="Layer 5 copy">
        <path class="cls-22" d="M30.557,16.509A2.883,2.883,0,0,1,30.33,17.6a4.52,4.52,0,0,1-2.525,2.069h0a.317.317,0,0,1-.038.017q-.529.227-1.052.472-.689.321-1.368.665c-.174.087-.349.175-.52.265s-.349.178-.52.271q-.6.31-1.187.636c-.433.233-.861.472-1.291.714-.37.205-.738.414-1.108.622s-.732.414-1.1.622c-.293.166-.586.331-.876.5-.322.185-.644.372-.962.563l-.02.013c-.247.148-.5.3-.741.453-.117.069-.233.141-.349.216-.506.314-1,.642-1.49.979l-.009.007a.107.107,0,0,1-.019.013q-.251.174-.492.348c-.034.023-.065.046-.1.071q-.241.174-.479.357a.6.6,0,0,0-.053.039q-.474.355-.927.738c-.1.083-.2.172-.3.257-.07.063-.137.127-.206.19-.391.36-.765.737-1.146,1.105-.209.205-.42.406-.636.6-.08.075-.164.148-.248.218.089-.076.271-1.658.378-1.93.039-.094.077-.185.122-.27a4.84,4.84,0,0,1,.749-1.1c.069-.084.143-.168.223-.258.438-.5.882-.983,1.33-1.468.19-.206.384-.413.578-.616q.677-.718,1.368-1.42l.425-.424c.078-.079.155-.154.236-.23,2.066-2.017,4.26-3.86,6.442-5.751,1.629-1.407,3.975-3.6,6.348-3.075A2.443,2.443,0,0,1,30.557,16.509Z"/>
      </g>
      <g id="Layer_8_copy" data-name="Layer 8 copy">
        <path class="cls-19" d="M10.585,30.649c-.121.128-.243.26-.364.394-.135.153-.271.3-.4.455-.1.112-.2.228-.294.343,0-.038-.013-.073-.021-.111a7.4,7.4,0,0,0-.186-1.138,7.053,7.053,0,0,0-.379-1.135,7.331,7.331,0,0,0-.587-1.093,7,7,0,0,0-.623-.825c.1.044.231.1.374.177a4.666,4.666,0,0,1,1.053.737,5.787,5.787,0,0,1,1.417,2.164A.24.24,0,0,1,10.585,30.649Z"/>
        <path class="cls-19" d="M12.6,28.7c-.391.36-.765.737-1.146,1.105a.192.192,0,0,1-.009-.04,10.577,10.577,0,0,0-.375-1.345,10.025,10.025,0,0,0-.412-1,10.451,10.451,0,0,0-1.613-2.441,8.879,8.879,0,0,1,2.774,2.345l.013.017a7.127,7.127,0,0,1,.764,1.35Z"/>
        <path class="cls-19" d="M15.174,26.684a.107.107,0,0,1-.019.013q-.251.174-.492.348c-.034.023-.065.046-.1.071q-.241.174-.479.357a.6.6,0,0,0-.053.039,5.6,5.6,0,0,0-.518-1.646c-.047-.094-.094-.182-.143-.271A5.722,5.722,0,0,0,12.049,24a5.306,5.306,0,0,1,1.9.979,3.9,3.9,0,0,1,.855.961A4.311,4.311,0,0,1,15.174,26.684Z"/>
        <path class="cls-19" d="M17.783,25.016l-.02.013c-.247.148-.5.3-.741.453-.117.069-.233.141-.349.216a4.87,4.87,0,0,0-.274-1.333,4.665,4.665,0,0,0-.654-1.23,4.869,4.869,0,0,0-.515-.6,4.393,4.393,0,0,1,.751.369c.077.045.154.1.234.151C16.384,23.175,17.633,24.07,17.783,25.016Z"/>
      </g>
    </g>
    <g id="Layer_20_copy" data-name="Layer 20 copy">
      <circle class="cls-23" cx="35.58" cy="11.444" r="1.837"/>
      <circle class="cls-24" cx="35.462" cy="11.561" r="0.751"/>
      <circle class="cls-25" cx="36.031" cy="10.922" r="0.276"/>
    </g>
  </g>
  <g id="Layer_22" data-name="Layer 22">
    <path class="cls-26" d="M121.727,85.5a3.048,3.048,0,0,1-2.074,2.42,7.051,7.051,0,0,0-2.939-.576A6.637,6.637,0,0,1,114.237,87a6.268,6.268,0,0,1-1.5.519c-.538.115-1.077.249-1.613.4a4.521,4.521,0,0,0-2.478,0,3.673,3.673,0,0,1-2.017.116,10.531,10.531,0,0,0-.749-.98,1.529,1.529,0,0,1-.288-.4,6.188,6.188,0,0,1-.4-.692,1.494,1.494,0,0,0-.519-.576,2.816,2.816,0,0,0,.289-1.095,1.224,1.224,0,0,1-.058-.4,2.855,2.855,0,0,0-.173-.864,1.541,1.541,0,0,1,.058-1.095c.153-.383.075-.576-.231-.576s-.423-.19-.345-.576a1.213,1.213,0,0,1,0-.749c.075-.191.153-.363.23-.519a3.546,3.546,0,0,1-.4-1.844,14.893,14.893,0,0,0-.058-2.189,14.605,14.605,0,0,0-.346-2.074,6.58,6.58,0,0,1-.115-2.19,2.417,2.417,0,0,0,0-1.5,7.887,7.887,0,0,0-.461-.806,5.058,5.058,0,0,1,.231-1.037,2.128,2.128,0,0,0,0-1.383,3.628,3.628,0,0,1-.461-1.555v-.98a8.494,8.494,0,0,0-.231-.922,6.5,6.5,0,0,0-.345-.806,2.461,2.461,0,0,1,.115-.865,3.349,3.349,0,0,1,.345-.633q-.345-1.152-.576-2.3a1.231,1.231,0,0,1,.231-.692,1.42,1.42,0,0,0,.23-.806,2.812,2.812,0,0,0-.115-.749,1.241,1.241,0,0,1,0-.749,6.719,6.719,0,0,1,.173-1.614,1.4,1.4,0,0,0-.288-1.267,2.7,2.7,0,0,0,.288-1.556,10.543,10.543,0,0,0-.288-1.9,1.3,1.3,0,0,0-1.095-.346q-.519.117-1.095.231a10.527,10.527,0,0,1-2.477-.4,9.444,9.444,0,0,0-1.786-.4,10.606,10.606,0,0,0-1.9-.058,6.21,6.21,0,0,1-1.9-.172,5.512,5.512,0,0,0-1.441-.346,2.375,2.375,0,0,0-.749.115c-.846.155-1.344.155-1.5,0a.668.668,0,0,0-.461-.23,6.91,6.91,0,0,1-2.592.633q-1.326.06-3.169.173a8.177,8.177,0,0,0-.864.058,8.771,8.771,0,0,1-.98.057,2.8,2.8,0,0,0-1.325.058,5.007,5.007,0,0,1-.98.288,4.947,4.947,0,0,1-1.613.173q-.691-.057-1.613-.058a3.192,3.192,0,0,0-1.325.058,6.013,6.013,0,0,1-1.326.173,1.986,1.986,0,0,1-1.152-.115,1.027,1.027,0,0,0-1.152.345,1.732,1.732,0,0,0-.4,1.268q.057.691.058,1.383-.115.807-.288,1.671a9.106,9.106,0,0,0-.173,1.786,12.3,12.3,0,0,0,.173,2.132q.172.98.288,2.016a11.6,11.6,0,0,1-.115,1.441q-.115.864-.115,1.094a6.425,6.425,0,0,1,.057,2.247,12.33,12.33,0,0,0-.173,2.132,2.8,2.8,0,0,1-.057,1.325,1.743,1.743,0,0,0-.173.634,6.732,6.732,0,0,0,.115,1.21,3.28,3.28,0,0,1,0,1.21,5.15,5.15,0,0,1-.346,1.094,5.042,5.042,0,0,0-.345,1.1,2.546,2.546,0,0,0,.115.807,5.684,5.684,0,0,0,.346.806c.075.386-.02.634-.289.749s-.365.367-.288.749a2.169,2.169,0,0,0,.173.865,1.919,1.919,0,0,1,.173.749,4.283,4.283,0,0,1,.058,1.843,2.49,2.49,0,0,0,.173,1.614.976.976,0,0,1-.058.749.757.757,0,0,0,.058.749,2.084,2.084,0,0,1,.172.922,1.83,1.83,0,0,0-.057.461,5.007,5.007,0,0,0,.115,1.094,2.3,2.3,0,0,1-.115,1.21A3.081,3.081,0,0,1,67.337,87a20.955,20.955,0,0,1-2.305.116h-5.07a7.115,7.115,0,0,0-1.556.345,1.641,1.641,0,0,1-1.21,0,1.337,1.337,0,0,1-.634-.576,2.232,2.232,0,0,0-.4-.576.979.979,0,0,0-.4-.634.957.957,0,0,1-.4-.634,9.168,9.168,0,0,0,.692-2.765,21.821,21.821,0,0,1,.345-2.535,2.517,2.517,0,0,0-.23-1.21q-.233-.4.345-.98a22.225,22.225,0,0,1-.576-4.667,34.16,34.16,0,0,0-.23-3.975,1.731,1.731,0,0,0-.115-.634c-.078-.191-.156-.4-.231-.634a2.167,2.167,0,0,1,.115-.691,2.573,2.573,0,0,0,.116-.807,3.836,3.836,0,0,0-.116-.921c-.077-.306-.155-.652-.23-1.037a9.719,9.719,0,0,1-.058-1.844,6.023,6.023,0,0,0-.173-1.844c-.077-.306-.155-.614-.23-.922a3.768,3.768,0,0,1-.115-.922,14.564,14.564,0,0,1,.057-2.881q.174-1.5.288-3a6.809,6.809,0,0,0-.23-1.613,14.438,14.438,0,0,1,.173-2.247,13.013,13.013,0,0,0,.173-2.017,2.2,2.2,0,0,0-.116-.691,1.431,1.431,0,0,1,0-.807,9.119,9.119,0,0,1,.116-1.5,8.6,8.6,0,0,0,.115-1.383c-.077-.306-.135-.576-.173-.806s-.1-.537-.173-.922a2.758,2.758,0,0,0-.173-1.152,1.39,1.39,0,0,1-.172-.461,1.412,1.412,0,0,0,0-.807c-.078-.153-.156-.306-.231-.461a1.889,1.889,0,0,1,.115-.576,1.232,1.232,0,0,1,.058-.4.966.966,0,0,0,.058-.288,5.146,5.146,0,0,0-.519-1.383,1.581,1.581,0,0,1-.288-.807,5.136,5.136,0,0,0-.058-1.844,2.6,2.6,0,0,1-.173-.922,15.267,15.267,0,0,1-.057-2.362q.057-1.323.057-1.9a4.592,4.592,0,0,0-.057-1.614,1.418,1.418,0,0,1,.4-1.382,2.777,2.777,0,0,1-.576-1.844,2.129,2.129,0,0,0-.691-1.729,3.868,3.868,0,0,0-.346-3.111,6.639,6.639,0,0,0,.057-2.3,14.109,14.109,0,0,1-.172-2.074,10.641,10.641,0,0,1,.345-1.44,3.072,3.072,0,0,0,0-1.671,10.039,10.039,0,0,1-.288-1.844c-.04-.614-.057-1.075-.057-1.383V5.474a7.589,7.589,0,0,0-.116-1.441,4.183,4.183,0,0,0-.461-1.325,2.007,2.007,0,0,1-.23-1.325,3.054,3.054,0,0,1,.807-.576A1.466,1.466,0,0,0,52.817,0a3.261,3.261,0,0,1,2.3,1.037,3.245,3.245,0,0,1,1.21.173,4.861,4.861,0,0,0,1.094.288,6.316,6.316,0,0,0,1.383.173,3.552,3.552,0,0,1,1.613.4,4.014,4.014,0,0,1,2.651-.345q1.728.231,3.111.345a15.6,15.6,0,0,0,1.959-.115,2.309,2.309,0,0,1,1.613.346,1.248,1.248,0,0,0,.346.922,1.243,1.243,0,0,1,.346.921,3.286,3.286,0,0,1-.115,1.441,13.507,13.507,0,0,1-.461,1.44,3.458,3.458,0,0,0,.115,2.651,9.2,9.2,0,0,0-.461,1.555,5.226,5.226,0,0,0,0,1.556,2.1,2.1,0,0,0-.576,1.325V15.9a2.156,2.156,0,0,1-.231,1.153,2.788,2.788,0,0,0-.345.691,2.5,2.5,0,0,1,0,1.5,1.444,1.444,0,0,0,.23,1.383,1.861,1.861,0,0,0-.691,1.671,2.426,2.426,0,0,0,.576,1.786,2.568,2.568,0,0,0,.057,1.613,4.509,4.509,0,0,1,.289,1.5,7.8,7.8,0,0,1-.116,2.3,10.583,10.583,0,0,0-.23,2.074,8.694,8.694,0,0,0,.23,2.017q.231.981.577,2.016a4.249,4.249,0,0,0,1.843.058,10,10,0,0,1,1.844-.173,7.473,7.473,0,0,1,1.671.173,6.9,6.9,0,0,0,1.556.173A9.106,9.106,0,0,0,78,35.665a9.091,9.091,0,0,1,1.786-.173,3.129,3.129,0,0,0,1.383.115,1.94,1.94,0,0,1,.576-.115,11.358,11.358,0,0,0,1.152.173q.576.06,1.268.173a4.781,4.781,0,0,1,1.671-.288,7.388,7.388,0,0,0,.749.057,12.763,12.763,0,0,0,3.687-.288,15.722,15.722,0,0,1,3.572-.4,4.4,4.4,0,0,1,1.383.23,2.82,2.82,0,0,0,1.383.116,10.265,10.265,0,0,0,2.132-.231,6.744,6.744,0,0,1,2.132-.115q.229-.574.4-1.037a2.933,2.933,0,0,0,.173-1.037,14.234,14.234,0,0,1-.4-2.074,7.97,7.97,0,0,0-.289-1.5,5.114,5.114,0,0,1-.172-1.556,8.172,8.172,0,0,0,.057-.864,11.124,11.124,0,0,0,.058-1.959,12.3,12.3,0,0,1,.057-2.075q.114-.691.173-1.382a2.176,2.176,0,0,1,.4-1.153,4.35,4.35,0,0,0-.346-1.728,4.054,4.054,0,0,1-.346-1.614,3.575,3.575,0,0,1,.231-1.094,2.361,2.361,0,0,0,.23-.519,1.685,1.685,0,0,0,0-.864.884.884,0,0,1,0-.634,2.751,2.751,0,0,1,.288-.749,2.731,2.731,0,0,0,.288-.749,4.059,4.059,0,0,0,.116-.979,7.457,7.457,0,0,1,.115-1.21,6.326,6.326,0,0,0,.23-1.383q0-.805-.057-1.556a3.56,3.56,0,0,1,.173-1.44q.23-.921.46-2.3a7.449,7.449,0,0,1,.807-2.42h1.729a2.561,2.561,0,0,1,.633.115,2.421,2.421,0,0,0,.634.116,4.315,4.315,0,0,0,1.383-.231,4.369,4.369,0,0,1,1.383-.23,3.3,3.3,0,0,1,1.21-.288q.748-.057,1.21-.058a3.9,3.9,0,0,0,1.9,0A4.1,4.1,0,0,1,116.138.4a2.581,2.581,0,0,0,1.21.058,2.162,2.162,0,0,0,.807.979,2.212,2.212,0,0,1,.807.98,4.056,4.056,0,0,1-.173,1.671q-.289,1.1-.519,2.016c-.307.461-.423.789-.346.98a1.711,1.711,0,0,1,.116.634,2.642,2.642,0,0,0-.058,1.44,2.182,2.182,0,0,1,.173.864,6.181,6.181,0,0,1-.346,1.959,7.724,7.724,0,0,0,.115,1.268,2.331,2.331,0,0,1-.115,1.268,9,9,0,0,1-.576,1.786,10.836,10.836,0,0,0-.576,1.555A1.88,1.88,0,0,0,117,19.244q0,.691-.4.864c-.27.116-.365.443-.288.98a10.449,10.449,0,0,1,.288,1.844q.057.923.173,2.074a14.738,14.738,0,0,1,.346,2.189,10.619,10.619,0,0,1,0,2.19c.075,1.152.173,2.094.288,2.823a13.7,13.7,0,0,1,.173,2.132,1.779,1.779,0,0,1-.173.806,3.894,3.894,0,0,0-.288.807,16.265,16.265,0,0,1,0,3.86q-.233,1.788-.461,2.939a4.519,4.519,0,0,1,.288,2.823,5.39,5.39,0,0,0,.288,3.054,1.417,1.417,0,0,0-.4,1.383c.115.538.248,1.114.4,1.728a14.781,14.781,0,0,1,.115,1.786q0,.865.115,2.017c.076.616.133,1.152.173,1.613a9.393,9.393,0,0,1-.057,1.729,3.154,3.154,0,0,1-.116.864,2.739,2.739,0,0,0-.115.749,3.063,3.063,0,0,0,.346,1.383,4.9,4.9,0,0,1,.461,1.383,25.434,25.434,0,0,1,.173,3.86q-.06,2.017-.288,3.975a12.7,12.7,0,0,1,.691,2.593q.113.981.231,1.9a19.263,19.263,0,0,1,.345,2.132,14.128,14.128,0,0,0,.346,2.017,6.34,6.34,0,0,0,.749,2.074,5.92,5.92,0,0,1,.634,1.152A4.549,4.549,0,0,1,121.727,85.5Z"/>
  </g>
</svg>
