<?xml version="1.0" encoding="utf-8"?>
<!-- Generator: Adobe Illustrator 24.0.3, SVG Export Plug-In . SVG Version: 6.00 Build 0)  -->
<svg version="1.1" xmlns="http://www.w3.org/2000/svg" xmlns:xlink="http://www.w3.org/1999/xlink" x="0px" y="0px"
	 viewBox="0 0 106.992 41.826" style="enable-background:new 0 0 106.992 41.826;" xml:space="preserve">
<style type="text/css">
	.st0{fill:#DDF100;}
	.st1{fill:#009245;}
	.st2{fill:#FFFFFF;}
</style>
<g id="Layer_4">
	<path class="st0" d="M91.53,30.065c-1.674-0.982-3.429-1.76-5.35-2.122c-3.751-0.706-7.645,0.32-11.074,1.993
		c-3.43,1.674-6.507,3.974-9.722,6.03c-9.039,5.778-20.757,9.139-29.655,1.088c-5.647-5.11-7.737-13.077-12.531-18.994
		c-0.537-0.663-1.198-1.346-2.049-1.409c-1.135-0.084-1.999,0.936-2.774,1.769c-2.826,3.04-7.1,4.669-11.232,4.281
		c-9.574-0.898-8.376-13.858-3.1-19.059c3.924-3.868,9.527-3.678,11.129-3.623c4.089,0.139,7.13,1.734,8.586,2.645
		c1.795,1.122,3.806,2.845,7.466,8.814c3.792,6.184,5.741,14.951,12.585,18.638c5.479,2.952,12.329,1.1,17.804-1.859
		c5.475-2.96,10.482-6.999,16.488-8.633c5.307-1.444,11.147-0.827,16.034,1.695c4.473,2.308,7.26,5.83,9.798,10.036
		c0.768,1.273,5.771,8.254,1.071,6.907C99.952,36.813,96.029,32.704,91.53,30.065z"/>
</g>
<g id="Layer_6">
	<circle class="st1" cx="11.543" cy="9.205" r="3.509"/>
</g>
<g id="Layer_8">
	<circle class="st2" cx="12.305" cy="7.694" r="1.069"/>
	<g>
	</g>
	<g>
	</g>
	<g>
	</g>
	<g>
	</g>
	<g>
	</g>
</g>
</svg>
