<?xml version="1.0" encoding="utf-8"?>
<!-- Generator: Adobe Illustrator 24.0.3, SVG Export Plug-In . SVG Version: 6.00 Build 0)  -->
<svg version="1.1" xmlns="http://www.w3.org/2000/svg" xmlns:xlink="http://www.w3.org/1999/xlink" x="0px" y="0px"
	 viewBox="0 0 213.783 229.76" style="enable-background:new 0 0 213.783 229.76;" xml:space="preserve">
<style type="text/css">
	.st0{fill-rule:evenodd;clip-rule:evenodd;fill:#20B4A9;}
	.st1{fill-rule:evenodd;clip-rule:evenodd;fill:#4FD220;}
	.st2{fill-rule:evenodd;clip-rule:evenodd;fill:#4FE320;}
	.st3{fill-rule:evenodd;clip-rule:evenodd;fill:#4FFF20;}
	.st4{fill-rule:evenodd;clip-rule:evenodd;fill:#74FF20;}
	.st5{fill-rule:evenodd;clip-rule:evenodd;fill:#8FF820;}
	.st6{fill:url(#SVGID_1_);}
	.st7{fill:url(#SVGID_2_);}
	.st8{fill:url(#SVGID_3_);}
	.st9{fill:url(#SVGID_4_);}
	.st10{fill:url(#SVGID_5_);}
	.st11{fill:url(#SVGID_6_);}
	.st12{fill:url(#SVGID_7_);}
	.st13{fill:url(#SVGID_8_);}
	.st14{fill:url(#SVGID_9_);}
	.st15{fill:url(#SVGID_10_);}
	.st16{fill:url(#SVGID_11_);}
	.st17{fill:url(#SVGID_12_);}
	.st18{fill:url(#SVGID_13_);}
	.st19{fill:url(#SVGID_14_);}
	.st20{fill:url(#SVGID_15_);}
	.st21{fill:url(#SVGID_16_);}
	.st22{fill:url(#SVGID_17_);}
	.st23{fill:url(#SVGID_18_);}
	.st24{fill:url(#SVGID_19_);}
	.st25{fill:url(#SVGID_20_);}
	.st26{fill:url(#SVGID_21_);}
	.st27{fill:url(#SVGID_22_);}
</style>
<g id="Layer_8">
	<g>
		<g>
			<g>
				<path class="st0" d="M128.267,148.706c-4.175,1.916-8.468,3.855-12.709,5.551c-4.246,1.721-8.464,3.302-12.558,4.777
					c-8.18,2.965-15.917,5.432-22.348,7.808c-3.217,1.195-6.122,2.373-8.639,3.529c-2.526,1.138-4.644,2.283-6.433,3.24
					c-3.556,1.933-5.718,2.925-5.944,2.567c-0.214-0.34,1.474-1.949,4.709-4.474c1.62-1.248,3.687-2.728,6.195-4.169
					c2.497-1.459,5.411-2.91,8.637-4.331c6.47-2.834,14.115-5.538,22.237-8.535c8.15-2.965,16.698-6.194,25.212-9.734
					c8.832-3.541,16.277-6.526,23.044-9.24c3.387-1.342,6.582-2.643,9.736-3.858c3.172-1.206,6.306-2.248,9.454-3.252
					c6.298-2.012,12.704-3.71,19.792-5.93c7.074-2.227,14.865-5.043,23.497-9.793c-8.505,4.968-16.231,8.055-23.235,10.572
					c-7.017,2.509-13.335,4.516-19.472,6.836c-3.068,1.158-6.107,2.355-9.164,3.711c-3.058,1.408-6.194,2.851-9.496,4.371
					C144.171,141.392,136.897,144.737,128.267,148.706z"/>
			</g>
		</g>
	</g>
	<g>
		<g>
			<g>
				<path class="st1" d="M102.128,179.74c-2.714-1.138-5.316-2.444-7.666-3.658c-2.343-1.215-4.566-2.383-6.462-3.53
					c-3.781-2.259-6.1-4.291-5.672-5.448c0.416-1.128,3.605-1.05,7.953,0.127c2.157,0.596,4.661,1.471,7.242,2.723
					c2.577,1.249,5.11,2.789,7.531,4.472c0.62,0.435,1.217,0.854,1.795,1.259c0.576,0.385,1.132,0.756,1.671,1.116
					c1.069,0.722,2.071,1.399,3.028,2.045c1.905,1.286,3.618,2.5,5.357,3.627c1.753,1.133,3.605,2.227,5.569,3.634
					c0.978,0.703,1.985,1.505,2.963,2.439c0.979,0.909,2,1.939,3.49,2.471c-1.543-0.347-2.758-1.272-3.853-2.019
					c-1.094-0.767-2.161-1.353-3.215-1.848c-2.109-0.983-4.095-1.62-6.097-2.311c-2.018-0.699-3.972-1.431-6.185-2.231
					c-1.106-0.409-2.265-0.838-3.501-1.296C104.822,180.86,103.515,180.336,102.128,179.74z"/>
			</g>
		</g>
	</g>
	<g>
		<g>
			<g>
				<path class="st1" d="M87.693,144.373c-0.301,2.397-0.8,4.776-1.51,6.901c-0.694,2.133-1.476,3.974-2.228,5.541
					c-1.507,3.132-3.031,5.207-4.3,4.939c-1.215-0.255-1.867-2.832-1.524-6.532c0.171-1.849,0.619-3.947,1.22-6.035
					c0.62-2.087,1.315-4.261,2.219-6.405c0.456-1.097,0.932-2.132,1.301-3.06c0.378-0.93,0.707-1.808,1.001-2.658
					c0.595-1.698,1.055-3.282,1.507-4.927c0.887-3.286,1.863-6.782,4.341-11.14c-0.846,2.368-1.366,4.397-1.539,6.258
					c-0.203,1.853-0.148,3.51-0.078,5.195c0.074,1.683,0.168,3.409,0.137,5.358c-0.012,0.974-0.058,2.005-0.151,3.107
					C88.002,142.025,87.843,143.128,87.693,144.373z"/>
			</g>
		</g>
	</g>
	<g>
		<g>
			<g>
				<path class="st2" d="M118.12,173.652c-4.99-1.643-9.758-4.114-12.932-6.703c-3.146-2.628-4.818-4.903-4.14-5.914
					c0.678-1.012,3.472-0.564,7.011,0.883c3.562,1.406,8.195,3.481,12.623,6.232c4.566,2.834,7.71,4.858,10.811,7.086
					c0.774,0.56,1.548,1.126,2.324,1.764c0.79,0.62,1.549,1.353,2.291,2.074c1.529,1.456,3.221,3.056,5.273,4.924
					c-2.283-1.579-4.23-2.865-6.017-3.966c-0.905-0.569-1.713-1.051-2.562-1.43c-0.839-0.398-1.695-0.73-2.552-1.047
					C126.809,176.293,123.261,175.342,118.12,173.652z"/>
			</g>
		</g>
	</g>
	<g>
		<g>
			<g>
				<path class="st2" d="M101.707,140.338c-0.157,2.358-0.508,4.463-1.056,6.622c-0.551,2.143-1.368,4.21-2.404,5.885
					c-1.039,1.682-2.313,2.936-3.444,3.534c-1.126,0.615-2.065,0.574-2.546,0.105c-0.517-0.498-0.594-1.31-0.577-2.332
					c0.032-1.021,0.185-2.253,0.406-3.747c0.217-1.504,0.507-3.27,0.941-5.273c0.424-1.991,1.101-4.309,1.92-6.38
					c1.72-4.358,3.053-7.319,4.321-10.344c0.63-1.464,1.096-3.035,1.728-4.818c0.163-0.45,0.32-0.884,0.532-1.377
					c0.214-0.484,0.489-0.934,0.781-1.378c0.578-0.888,1.281-1.74,1.707-2.883c-0.219,1.2-0.763,2.231-1.116,3.187
					c-0.394,0.958-0.484,1.819-0.547,2.741c-0.123,1.79-0.055,3.454-0.139,5.143C102.077,132.306,102.021,135.576,101.707,140.338z"
					/>
			</g>
		</g>
	</g>
	<g>
		<g>
			<g>
				<path class="st3" d="M116.683,136.402c-0.182,1.969-0.535,3.868-0.987,5.615c-0.221,0.861-0.489,1.737-0.738,2.466
					c-0.263,0.788-0.57,1.645-0.962,2.46c-0.391,0.816-0.869,1.601-1.445,2.259c-0.57,0.66-1.247,1.175-1.881,1.456
					c-1.335,0.573-2.246,0.154-2.523-0.459c-0.306-0.644-0.229-1.424-0.366-2.141c-0.121-0.737-0.251-1.5-0.289-2.786
					c-0.018-0.636-0.022-1.374,0.048-2.268c0.082-0.954,0.22-1.84,0.42-2.8c0.4-1.894,1.052-3.851,1.95-5.711
					c1.852-3.83,3.369-6.291,4.811-8.813c0.736-1.273,1.388-2.508,2.197-4.007c0.817-1.465,1.948-2.834,2.532-4.898
					c-0.154,2.14-0.928,3.881-1.222,5.408c-0.276,1.516-0.441,3.016-0.605,4.432C117.305,129.485,117.06,132.343,116.683,136.402z"
					/>
			</g>
		</g>
	</g>
	<g>
		<g>
			<g>
				<path class="st3" d="M130.169,166.195c-4.023-1.768-7.452-4.253-9.796-6.399c-2.332-2.168-3.659-4.076-3.083-5.167
					c0.567-1.076,3.03-1,6.136,0.206c3.119,1.185,6.766,3.453,9.958,6.172c3.308,2.82,5.553,4.622,8.082,6.427
					c1.237,0.925,2.557,1.809,3.867,2.975c1.324,1.151,2.786,2.373,4.565,3.782c-1.987-1.101-3.682-1.988-5.2-2.74
					c-1.513-0.773-2.966-1.188-4.416-1.651C137.373,168.945,134.288,168.01,130.169,166.195z"/>
			</g>
		</g>
	</g>
	<g>
		<g>
			<g>
				<path class="st3" d="M130.027,133.678c-0.371,3.321-1.492,6.42-2.81,8.579c-0.682,1.106-1.302,1.849-2.164,2.578
					c-0.423,0.338-0.884,0.551-1.268,0.575c-0.388,0.029-0.685-0.111-0.9-0.329c-0.219-0.221-0.362-0.499-0.512-0.772
					c-0.147-0.278-0.299-0.542-0.433-0.861c-0.28-0.585-0.371-1.826-0.306-3.059c0.137-2.532,0.954-5.681,2.517-8.588
					c0.405-0.737,0.783-1.426,1.142-2.079c0.387-0.642,0.752-1.249,1.102-1.831c0.698-1.132,1.336-2.167,1.963-3.184
					c0.587-1.022,1.313-2.078,2-3.161c0.658-1.102,1.388-2.388,1.342-4.158c0.434,1.718,0.077,3.302-0.197,4.614
					c-0.312,1.345-0.531,2.431-0.636,3.631C130.62,127.985,130.367,130.414,130.027,133.678z"/>
			</g>
		</g>
	</g>
	<g>
		<g>
			<g>
				<path class="st3" d="M140.874,158.039c-1.667-0.564-3.228-1.277-4.653-2.121c-1.452-0.888-2.618-1.855-3.53-2.767
					c-1.792-1.828-2.73-3.48-2.215-4.607c0.514-1.128,2.678-1.292,5.266-0.428c1.288,0.416,2.654,1.052,3.974,1.777
					c1.37,0.729,2.811,1.649,4.128,2.74c1.365,1.124,2.502,2.104,3.534,3.005c1.027,0.919,1.942,1.644,2.937,2.427
					c0.982,0.772,1.999,1.542,3.096,2.449c1.088,0.92,2.198,1.994,3.6,3.159c-1.618-0.858-2.966-1.595-4.229-2.099
					c-1.27-0.491-2.45-0.806-3.648-1.11c-1.182-0.3-2.461-0.595-3.772-1.005C144.04,159.062,142.587,158.613,140.874,158.039z"/>
			</g>
		</g>
	</g>
	<g>
		<g>
			<g>
				<path class="st3" d="M141.39,128.99c-0.017,3.096-0.747,5.776-1.706,7.934c-0.487,1.101-1.121,2.065-1.791,2.625
					c-0.669,0.57-1.342,0.736-1.889,0.521c-0.553-0.216-0.935-0.745-1.234-1.436c-0.295-0.698-0.515-1.566-0.624-2.681
					c-0.224-2.278,0.308-5.455,1.486-8.208c1.224-2.811,2.215-4.964,3.495-6.907c0.642-0.994,1.358-1.848,2.066-2.821
					c0.697-0.976,1.457-2.072,1.844-3.634c-0.025,1.609-0.456,2.964-0.785,4.147c-0.342,1.188-0.63,2.23-0.744,3.228
					C141.255,123.795,141.429,125.787,141.39,128.99z"/>
			</g>
		</g>
	</g>
	<g>
		<g>
			<g>
				<path class="st3" d="M152.168,150.293c-2.464-0.938-4.754-2.263-6.372-3.723c-1.613-1.448-2.465-3.001-1.944-4.063
					c0.519-1.058,2.228-1.392,4.428-0.973c2.184,0.422,4.954,1.658,7.168,3.875c1.13,1.13,2.005,2.191,2.719,3.171
					c0.643,0.936,1.233,1.794,1.81,2.633c0.583,0.803,1.184,1.556,2.041,2.222c0.854,0.658,1.99,1.227,3.495,1.436
					c-3.035,0.304-5.279-0.755-7.17-1.7c-0.914-0.469-1.849-0.95-2.87-1.473C154.501,151.231,153.45,150.78,152.168,150.293z"/>
			</g>
		</g>
	</g>
	<g>
		<g>
			<g>
				<path class="st4" d="M153.974,125.244c-0.04,0.209-0.079,0.413-0.118,0.613c-0.028,0.167-0.055,0.331-0.082,0.492
					c-0.07,0.36-0.137,0.707-0.202,1.044c-0.153,0.711-0.342,1.453-0.582,2.189c-0.47,1.464-1.158,2.912-2.041,4.074
					c-0.87,1.166-1.963,2.017-2.917,2.323c-0.951,0.324-1.694,0.116-2.06-0.357c-0.393-0.5-0.46-1.159-0.5-1.893
					c-0.025-0.731,0.013-1.544,0.136-2.552c0.126-1.004,0.335-2.199,0.708-3.592c0.189-0.691,0.419-1.43,0.729-2.211
					c0.15-0.384,0.332-0.793,0.529-1.198c0.106-0.204,0.215-0.411,0.325-0.623c0.1-0.162,0.203-0.328,0.307-0.497
					c1.716-2.732,2.991-4.741,4.332-6.682c0.345-0.508,0.655-0.924,0.967-1.434c0.316-0.504,0.64-1.059,1.035-1.624
					c0.388-0.574,0.899-1.117,1.406-1.622c0.502-0.512,1.01-1.091,1.213-1.931c-0.007,0.858-0.386,1.635-0.736,2.277
					c-0.361,0.655-0.624,1.223-0.773,1.811c-0.158,0.586-0.246,1.168-0.339,1.76c-0.098,0.589-0.195,1.171-0.293,1.759
					C154.664,119.621,154.547,121.858,153.974,125.244z"/>
			</g>
		</g>
	</g>
	<g>
		<g>
			<g>
				<path class="st4" d="M165.741,144.115c-2.663-1.002-4.936-2.635-6.387-4.263c-0.371-0.417-0.655-0.793-0.946-1.233
					c-0.286-0.437-0.497-0.852-0.628-1.233c-0.263-0.765-0.205-1.394,0.168-1.845s1.007-0.681,1.751-0.748
					c0.372-0.033,0.773-0.024,1.187,0.025c0.409,0.047,0.947,0.172,1.454,0.328c2.079,0.639,4.507,2.028,6.53,4.039
					c2.085,2.071,3.439,3.597,4.848,5.081c0.69,0.737,1.446,1.475,2.255,2.289c0.807,0.798,1.697,1.655,3.024,2.36
					c-1.451-0.366-2.632-0.941-3.679-1.394c-1.039-0.459-1.981-0.776-2.957-1.118C170.43,145.742,168.485,145.148,165.741,144.115z"
					/>
			</g>
		</g>
	</g>
	<g>
		<g>
			<g>
				<path class="st4" d="M165.632,120.583c-0.068,1.238-0.233,2.667-0.724,4.179c-0.115,0.351-0.287,0.802-0.406,1.059
					c-0.134,0.282-0.267,0.563-0.402,0.848c-0.29,0.581-0.625,1.162-1.002,1.691c-0.751,1.062-1.703,1.929-2.642,2.283
					c-0.942,0.37-1.693,0.152-2.04-0.345c-0.362-0.51-0.487-1.134-0.636-1.766c-0.133-0.634-0.206-1.382-0.154-2.346
					c0.026-0.485,0.08-1.019,0.185-1.622c0.054-0.306,0.118-0.62,0.21-0.972c0.073-0.282,0.145-0.562,0.219-0.846
					c0.3-1.093,0.706-2.516,1.515-4.039c0.213-0.39,0.424-0.763,0.655-1.122c0.225-0.361,0.471-0.711,0.662-0.941
					c0.407-0.509,0.793-0.99,1.163-1.452c0.741-0.911,1.419-1.745,2.084-2.561c0.333-0.426,0.663-0.847,0.996-1.273
					c0.335-0.427,0.588-0.833,0.871-1.368c0.556-0.999,1.096-2.44,2.453-3.282c-0.549,0.559-0.831,1.206-0.988,1.825
					c-0.161,0.621-0.219,1.226-0.287,1.82c-0.06,0.579-0.152,1.223-0.276,1.762c-0.105,0.527-0.209,1.049-0.314,1.577
					c-0.188,1.036-0.379,2.095-0.588,3.251c-0.112,0.586-0.228,1.196-0.352,1.841c-0.078,0.354-0.108,0.609-0.133,0.892
					C165.67,119.958,165.652,120.264,165.632,120.583z"/>
			</g>
		</g>
	</g>
	<g>
		<g>
			<g>
				<path class="st4" d="M175.793,137.434c-0.433-0.102-0.927-0.262-1.401-0.46c-0.468-0.193-0.911-0.415-1.325-0.659
					c-0.828-0.486-1.538-1.056-2.09-1.651c-1.103-1.189-1.57-2.476-1.074-3.383c0.496-0.907,1.833-1.211,3.431-0.928
					c0.799,0.141,1.664,0.429,2.521,0.861c0.429,0.216,0.855,0.469,1.271,0.757c0.409,0.286,0.818,0.604,1.266,1.019
					c1.735,1.665,2.561,2.969,3.475,4.189c0.923,1.209,1.722,2.468,3.625,3.601c-2.138-0.537-3.571-1.323-4.979-1.828
					C179.102,138.426,177.677,137.921,175.793,137.434z"/>
			</g>
		</g>
	</g>
	<g>
		<g>
			<g>
				<path class="st4" d="M178.537,119.702c-0.418,2.677-2.035,5.17-3.81,6.421c-1.779,1.284-3.469,1.351-4.172,0.504
					c-0.726-0.866-0.487-2.319,0.043-3.86c0.552-1.555,1.425-3.284,2.756-5.12c0.343-0.471,0.66-0.919,0.949-1.352
					c0.312-0.47,0.608-0.917,0.892-1.347c0.59-0.852,1.151-1.565,1.694-2.278c1.071-1.429,2.171-2.817,3.165-5.223
					c-0.334,2.579-0.725,4.375-0.93,6.142c-0.111,0.882-0.2,1.755-0.26,2.693c-0.04,0.493-0.03,0.901-0.09,1.515
					C178.728,118.385,178.65,119.015,178.537,119.702z"/>
			</g>
		</g>
	</g>
	<g>
		<g>
			<g>
				<path class="st5" d="M185.717,131.104c-2.511-0.914-3.731-3.482-2.759-4.826c0.972-1.344,3.836-0.673,5.382,1.634
					c0.412,0.599,0.671,1.085,0.949,1.557c0.277,0.48,0.536,0.928,0.782,1.355c0.489,0.89,1.051,1.765,1.585,3.068
					c-0.962-1.027-1.864-1.38-2.749-1.707c-0.449-0.158-0.909-0.292-1.429-0.459C186.959,131.561,186.356,131.327,185.717,131.104z"
					/>
			</g>
		</g>
	</g>
	<g>
		<g>
			<g>
				<path class="st5" d="M187.731,119.374c-1.012,2.887-3.297,5.047-4.296,4.46c-1-0.588-0.224-3.635,1.806-5.923
					c2.091-2.358,3.083-3.09,5.007-5.669C188.93,115.177,188.773,116.399,187.731,119.374z"/>
			</g>
		</g>
	</g>
	<g>
		<g>
			<g>
				<path class="st5" d="M202.054,120.795c-2.683,1.486-5.556,2.335-7.789,2.66c-2.238,0.319-3.889,0.121-4.207-0.706
					c-0.317-0.824,0.823-2.093,2.805-3.26c1.982-1.174,4.76-2.221,7.641-2.82c2.983-0.632,5.014-1.03,7.015-1.645
					c1.915-0.462,3.596-2.011,6.264-3.723c-2.348,2.124-3.414,4.062-5.388,5.421C206.63,118.044,204.795,119.264,202.054,120.795z"
					/>
			</g>
		</g>
	</g>
</g>
<g id="Layer_8_copy">
	<g>
		<g>
			<g>
				<path class="st0" d="M78.211,55.616c-4.191,9.826-9.843,18.993-13.626,25.9c-1.889,3.473-3.145,6.452-3.922,8.642
					c-0.798,2.184-1.352,3.432-1.586,3.364c-0.221-0.065-0.105-1.4,0.329-3.716c0.409-2.323,1.439-5.637,3.162-9.296
					c3.47-7.327,8.923-16.377,13.503-25.894c2.455-4.87,4.53-8.987,6.419-12.734c0.948-1.863,1.85-3.634,2.729-5.361
					c0.909-1.724,1.863-3.364,2.838-4.992c1.949-3.259,4.064-6.424,6.275-10.073c1.102-1.826,2.223-3.777,3.31-5.942
					c0.55-1.08,1.075-2.219,1.551-3.434c0.495-1.209,1.009-2.464,1.544-3.771c-0.5,1.321-0.98,2.59-1.442,3.813
					c-0.441,1.232-0.933,2.39-1.449,3.49c-1.019,2.206-2.073,4.205-3.104,6.08c-2.07,3.746-4.03,7.011-5.793,10.342
					c-0.882,1.665-1.737,3.334-2.539,5.08c-0.783,1.768-1.586,3.582-2.431,5.49C82.281,46.432,80.417,50.639,78.211,55.616z"/>
			</g>
		</g>
	</g>
	<g>
		<g>
			<g>
				<path class="st1" d="M78.737,78.916c-1.602,0.541-3.219,0.966-4.692,1.336c-1.471,0.367-2.873,0.708-4.125,0.934
					c-2.487,0.463-4.258,0.468-4.513-0.193c-0.249-0.644,1.154-1.822,3.475-2.966c1.156-0.563,2.567-1.137,4.155-1.577
					c1.585-0.441,3.261-0.74,4.944-0.934c3.317-0.42,5.777-0.732,8.162-1.034c1.186-0.178,2.399-0.41,3.78-0.55
					c0.688-0.068,1.427-0.106,2.203-0.074c0.767,0.02,1.598,0.076,2.442-0.261c-0.797,0.436-1.671,0.5-2.427,0.594
					c-0.763,0.085-1.445,0.238-2.087,0.425c-1.282,0.377-2.38,0.858-3.505,1.32C84.286,76.82,82.048,77.771,78.737,78.916z"/>
			</g>
		</g>
	</g>
	<g>
		<g>
			<g>
				<path class="st1" d="M59.084,69.161c1.614,2.289,2.594,4.901,3.115,6.781c0.54,1.922,0.672,3.395,0.023,3.761
					c-0.62,0.352-1.88-0.511-3.138-2.235c-1.274-1.767-2.355-4.169-3.243-6.666c-0.825-2.648-1.528-4.253-2.403-6.033
					c-0.866-1.753-1.774-3.63-2.361-6.449c1.033,2.722,2.318,4.17,3.654,5.549c0.671,0.697,1.367,1.405,2.094,2.257
					C57.564,66.974,58.301,67.985,59.084,69.161z"/>
			</g>
		</g>
	</g>
	<g>
		<g>
			<g>
				<path class="st2" d="M83.315,70.218c-2.774,1.188-5.767,1.934-8.118,2.024c-2.354,0.063-3.938-0.282-4.03-0.976
					c-0.092-0.693,1.281-1.562,3.356-2.283c2.069-0.747,4.853-1.613,7.806-2.11c3.044-0.513,5.167-0.835,7.349-1.054
					c1.073-0.107,2.244-0.185,3.446-0.1c1.212,0.047,2.548,0.093,4.142,0.118c-1.584,0.187-2.911,0.372-4.099,0.577
					c-1.204,0.17-2.148,0.493-3.144,0.875C88.062,68.055,86.172,68.994,83.315,70.218z"/>
			</g>
		</g>
	</g>
	<g>
		<g>
			<g>
				<path class="st2" d="M63.589,62.099c0.828,1.076,1.476,2.116,2.06,3.254c0.577,1.132,1.01,2.334,1.2,3.448
					c0.191,1.119,0.118,2.144-0.141,2.831c-0.252,0.693-0.672,1.032-1.057,1.012c-0.412-0.018-0.753-0.339-1.134-0.785
					c-0.374-0.452-0.776-1.041-1.248-1.769c-0.478-0.73-1.024-1.602-1.598-2.629c-0.574-1.019-1.162-2.275-1.596-3.478
					c-0.914-2.531-1.465-4.313-2.067-6.098c-0.285-0.87-0.681-1.724-1.086-2.732c-0.199-0.486-0.418-1.078-0.48-1.686
					c-0.088-0.602-0.109-1.236-0.36-1.891c0.361,0.6,0.519,1.251,0.729,1.797c0.194,0.562,0.482,0.968,0.805,1.389
					c0.627,0.818,1.288,1.509,1.894,2.269C60.697,58.498,61.915,59.928,63.589,62.099z"/>
			</g>
		</g>
	</g>
	<g>
		<g>
			<g>
				<path class="st3" d="M68.546,54.714c0.67,0.917,1.239,1.87,1.708,2.794c0.232,0.455,0.449,0.934,0.619,1.343
					c0.186,0.439,0.379,0.925,0.52,1.425c0.297,0.984,0.333,2.127-0.022,2.864c-0.358,0.754-0.909,0.919-1.262,0.761
					c-0.376-0.161-0.64-0.527-0.971-0.784c-0.332-0.271-0.678-0.551-1.183-1.09c-0.25-0.267-0.531-0.584-0.841-0.995
					c-0.327-0.442-0.604-0.876-0.883-1.366c-0.547-0.968-1.01-2.059-1.329-3.201c-0.657-2.354-0.938-3.99-1.275-5.624
					c-0.167-0.828-0.355-1.608-0.575-2.561c-0.204-0.941-0.237-1.961-0.769-3.072c0.747,0.98,1.074,2.025,1.528,2.794
					c0.457,0.758,0.956,1.467,1.423,2.139C66.187,51.498,67.167,52.822,68.546,54.714z"/>
			</g>
		</g>
	</g>
	<g>
		<g>
			<g>
				<path class="st3" d="M85.673,62.428c-2.405,0.766-4.826,0.998-6.651,0.964c-1.828-0.048-3.125-0.366-3.291-1.055
					c-0.164-0.679,0.926-1.582,2.722-2.242c1.794-0.674,4.227-1.083,6.635-1.123c2.491-0.034,4.148-0.135,5.957-0.282
					c0.891-0.045,1.757-0.199,2.763-0.206c1.008-0.007,2.101-0.036,3.403-0.105c-1.274,0.28-2.341,0.542-3.281,0.795
					c-0.942,0.253-1.745,0.673-2.551,0.999C89.814,60.861,88.146,61.65,85.673,62.428z"/>
			</g>
		</g>
	</g>
	<g>
		<g>
			<g>
				<path class="st3" d="M73.261,48.472c1.102,1.572,1.796,3.333,2.048,4.764c0.126,0.735,0.141,1.291,0.047,1.933
					c-0.101,0.643-0.493,0.982-0.841,0.93c-0.356-0.048-0.672-0.197-1.027-0.344c-0.343-0.146-0.854-0.646-1.294-1.202
					c-0.903-1.143-1.747-2.81-2.178-4.656c-0.459-1.879-0.633-3.323-0.882-4.654c-0.135-0.663-0.224-1.394-0.339-2.122
					c-0.135-0.725-0.309-1.556-1.001-2.302c0.839,0.575,1.288,1.394,1.668,2.063c0.377,0.698,0.695,1.249,1.105,1.806
					C71.356,45.797,72.203,46.986,73.261,48.472z"/>
			</g>
		</g>
	</g>
	<g>
		<g>
			<g>
				<path class="st3" d="M87.188,54.848c-0.933,0.391-1.876,0.676-2.81,0.853c-0.963,0.169-1.833,0.195-2.572,0.149
					c-1.467-0.107-2.498-0.462-2.704-1.144c-0.207-0.681,0.663-1.574,2.106-2.185c0.713-0.31,1.543-0.555,2.387-0.744
					c0.867-0.206,1.838-0.357,2.819-0.388c2.042-0.076,3.435-0.012,4.851-0.117c0.716-0.041,1.447-0.095,2.264-0.121
					c0.818-0.017,1.705,0.024,2.751-0.006c-1.023,0.245-1.884,0.44-2.619,0.702c-0.734,0.271-1.362,0.583-1.993,0.907
					C90.401,53.433,89.086,54.04,87.188,54.848z"/>
			</g>
		</g>
	</g>
	<g>
		<g>
			<g>
				<path class="st3" d="M76.376,42.136c1.169,1.341,1.872,2.772,2.279,4.066c0.208,0.66,0.302,1.315,0.226,1.811
					c-0.072,0.5-0.299,0.827-0.616,0.942c-0.652,0.196-1.43-0.227-2.364-1.068c-0.962-0.897-1.94-2.467-2.478-4.101
					c-0.54-1.676-0.931-2.98-1.118-4.303c-0.101-0.672-0.117-1.312-0.181-2c-0.07-0.685-0.159-1.446-0.586-2.266
					c0.6,0.703,0.93,1.45,1.237,2.085c0.304,0.642,0.576,1.2,0.906,1.673C74.344,39.949,75.176,40.741,76.376,42.136z"/>
			</g>
		</g>
	</g>
	<g>
		<g>
			<g>
				<path class="st3" d="M89.112,47.22c-1.418,0.532-2.908,0.831-4.16,0.816c-1.245-0.011-2.202-0.357-2.381-1.012
					c-0.179-0.653,0.431-1.446,1.538-2.101c1.101-0.647,2.764-1.167,4.561-1.053c0.916,0.058,1.696,0.183,2.376,0.333
					c0.632,0.159,1.218,0.306,1.78,0.447c0.556,0.124,1.101,0.221,1.723,0.182c0.618-0.041,1.323-0.227,2.051-0.709
					c-1.192,1.284-2.561,1.68-3.735,1.991c-0.567,0.144-1.159,0.294-1.796,0.455C90.473,46.738,89.849,46.943,89.112,47.22z"/>
			</g>
		</g>
	</g>
	<g>
		<g>
			<g>
				<path class="st4" d="M80.378,35.758c0.856,1.319,1.771,3.048,1.889,4.758c0.068,0.833-0.08,1.614-0.374,2.109
					c-0.287,0.501-0.686,0.694-1.023,0.629c-0.359-0.066-0.639-0.325-0.934-0.626c-0.289-0.305-0.581-0.67-0.911-1.151
					c-0.327-0.481-0.691-1.075-1.06-1.817c-0.351-0.711-0.751-1.686-0.914-2.683c-0.325-1.895-0.47-3.209-0.655-4.522
					c-0.074-0.651-0.196-1.266-0.307-2.067c-0.156-0.812,0.215-1.633-0.221-2.525c0.323,0.372,0.455,0.851,0.548,1.261
					c0.093,0.419,0.196,0.764,0.355,1.074c0.315,0.602,0.717,1.188,1.078,1.759C78.59,33.067,79.362,34.148,80.378,35.758z"/>
			</g>
		</g>
	</g>
	<g>
		<g>
			<g>
				<path class="st4" d="M92.613,39.403c-1.528,0.58-3.128,0.74-4.371,0.589c-0.595-0.072-1.211-0.233-1.615-0.465
					c-0.404-0.23-0.618-0.523-0.628-0.859c-0.011-0.336,0.175-0.676,0.47-0.987c0.295-0.31,0.678-0.583,1.272-0.851
					c1.139-0.514,2.712-0.838,4.348-0.74c1.685,0.1,2.848,0.243,4.019,0.348c0.578,0.056,1.183,0.086,1.841,0.129
					c0.651,0.037,1.36,0.069,2.199-0.132c-0.764,0.393-1.491,0.594-2.114,0.797c-0.622,0.197-1.148,0.418-1.699,0.642
					C95.251,38.322,94.188,38.805,92.613,39.403z"/>
			</g>
		</g>
	</g>
	<g>
		<g>
			<g>
				<path class="st4" d="M83.627,29.305c0.441,0.559,0.913,1.237,1.275,2.075c0.084,0.195,0.181,0.455,0.228,0.611
					c0.047,0.165,0.097,0.336,0.149,0.518c0.096,0.36,0.172,0.738,0.211,1.109c0.08,0.743-0.001,1.478-0.271,1.987
					c-0.265,0.517-0.672,0.709-1.01,0.626c-0.35-0.082-0.641-0.304-0.945-0.519c-0.298-0.223-0.614-0.517-0.957-0.952
					c-0.173-0.219-0.353-0.469-0.537-0.769c-0.093-0.153-0.185-0.312-0.279-0.499c-0.078-0.154-0.153-0.301-0.227-0.447
					c-0.286-0.585-0.652-1.352-0.882-2.316c-0.11-0.474-0.205-1.025-0.216-1.389c-0.018-0.37-0.034-0.725-0.051-1.067
					c-0.027-0.672-0.051-1.296-0.075-1.895c-0.018-0.314-0.036-0.622-0.054-0.927c-0.018-0.311-0.063-0.582-0.144-0.92
					c-0.14-0.642-0.455-1.468-0.19-2.346c-0.034,0.914,0.462,1.497,0.835,2.055c0.194,0.272,0.399,0.585,0.55,0.864
					c0.153,0.263,0.306,0.528,0.464,0.799c0.31,0.513,0.633,1.048,0.981,1.624c0.176,0.297,0.358,0.605,0.548,0.927
					C83.224,28.8,83.392,28.994,83.627,29.305z"/>
			</g>
		</g>
	</g>
	<g>
		<g>
			<g>
				<path class="st4" d="M94.406,32.706c-2.074,1.079-4.631,0.751-4.875-0.413c-0.242-1.159,1.799-2.553,4.307-2.489
					c1.38,0.059,2.231,0.306,3.089,0.485c0.857,0.17,1.68,0.409,2.93,0.175c-1.125,0.581-2.041,0.786-2.84,1.104
					C96.209,31.876,95.403,32.2,94.406,32.706z"/>
			</g>
		</g>
	</g>
	<g>
		<g>
			<g>
				<path class="st4" d="M88.853,24.024c0.837,1.312,1.087,3.001,0.798,4.214c-0.279,1.229-0.981,1.9-1.606,1.802
					c-0.642-0.097-1.091-0.814-1.448-1.68c-0.353-0.88-0.633-1.956-0.757-3.253c-0.056-0.662-0.151-1.24-0.232-1.862
					c-0.07-0.591-0.099-1.111-0.135-1.625c-0.082-1.023-0.135-2.038-0.62-3.452c0.836,1.238,1.349,2.16,1.932,2.999
					c0.287,0.422,0.581,0.832,0.911,1.259C88.011,22.823,88.429,23.337,88.853,24.024z"/>
			</g>
		</g>
	</g>
	<g>
		<g>
			<g>
				<path class="st5" d="M96.277,26.209c-1.429,0.56-2.93-0.083-3.022-1.031c-0.092-0.948,1.397-1.747,2.94-1.34
					c0.78,0.213,1.281,0.412,1.852,0.597c0.549,0.198,1.123,0.361,1.848,0.72c-0.804-0.077-1.327,0.113-1.833,0.309
					C97.574,25.672,97.029,25.923,96.277,26.209z"/>
			</g>
		</g>
	</g>
	<g>
		<g>
			<g>
				<path class="st5" d="M92.689,20.39c0.66,1.628,0.497,3.427-0.157,3.554c-0.654,0.127-1.477-1.481-1.472-3.238
					c0.005-1.81,0.154-2.502,0.004-4.344C91.612,18.126,92.009,18.712,92.689,20.39z"/>
			</g>
		</g>
	</g>
	<g>
		<g>
			<g>
				<path class="st5" d="M99.394,15.542c-1.187,3.235-3.522,5.895-4.42,5.418c-0.897-0.477,0.072-3.836,2.171-6.581
					c0.569-0.707,0.929-1.298,1.322-1.843c0.383-0.547,0.738-1.055,1.079-1.542c0.684-0.917,0.795-2.23,1.301-3.978
					c-0.212,1.803,0.088,3.056-0.277,4.372c-0.155,0.596-0.316,1.216-0.49,1.884C99.895,13.939,99.717,14.731,99.394,15.542z"/>
			</g>
		</g>
	</g>
</g>
<g id="Layer_8_copy_2">
	<g>
		<g>
			<g>
				<path class="st0" d="M32.082,47.599c4.58,9.518,10.033,18.567,13.503,25.894c1.723,3.659,2.752,6.973,3.162,9.296
					c0.434,2.317,0.551,3.651,0.329,3.716c-0.233,0.069-0.788-1.18-1.586-3.364c-0.777-2.19-2.033-5.169-3.923-8.641
					c-3.783-6.907-9.435-16.074-13.626-25.9c-2.206-4.977-4.07-9.184-5.768-13.014c-0.845-1.908-1.648-3.722-2.431-5.49
					c-0.802-1.746-1.657-3.415-2.539-5.08c-1.763-3.33-3.723-6.595-5.793-10.342c-1.032-1.875-2.085-3.874-3.104-6.08
					c-0.516-1.1-1.008-2.258-1.449-3.49C8.397,3.883,7.917,2.614,7.417,1.293c0.535,1.307,1.049,2.561,1.544,3.771
					c0.475,1.215,1.001,2.354,1.551,3.434c1.087,2.165,2.208,4.116,3.309,5.942c2.21,3.648,4.326,6.814,6.275,10.073
					c0.975,1.629,1.929,3.268,2.838,4.992c0.879,1.726,1.781,3.497,2.729,5.36C27.552,38.612,29.627,42.729,32.082,47.599z"/>
			</g>
		</g>
	</g>
	<g>
		<g>
			<g>
				<path class="st1" d="M30.173,68.499c1.683,0.195,3.359,0.493,4.943,0.934c1.588,0.441,2.999,1.015,4.155,1.577
					c2.321,1.144,3.724,2.322,3.475,2.966c-0.255,0.661-2.026,0.656-4.513,0.194c-1.252-0.226-2.654-0.567-4.125-0.934
					c-1.473-0.369-3.091-0.795-4.692-1.336c-3.311-1.145-5.548-2.096-7.811-2.98c-1.125-0.463-2.223-0.943-3.505-1.32
					c-0.642-0.187-1.325-0.341-2.087-0.425c-0.756-0.094-1.63-0.158-2.427-0.594c0.844,0.337,1.675,0.281,2.442,0.261
					c0.776-0.031,1.515,0.006,2.203,0.075c1.381,0.14,2.594,0.372,3.78,0.55C24.396,67.767,26.856,68.079,30.173,68.499z"/>
			</g>
		</g>
	</g>
	<g>
		<g>
			<g>
				<path class="st1" d="M52.312,63.787c-0.889,2.497-1.97,4.899-3.244,6.666c-1.257,1.725-2.517,2.588-3.137,2.236
					c-0.648-0.367-0.517-1.84,0.023-3.762c0.521-1.88,1.501-4.492,3.116-6.78c0.783-1.176,1.52-2.187,2.258-3.035
					c0.727-0.852,1.423-1.56,2.094-2.257c1.336-1.378,2.621-2.827,3.654-5.549c-0.588,2.819-1.496,4.696-2.362,6.448
					C53.84,59.534,53.137,61.139,52.312,63.787z"/>
			</g>
		</g>
	</g>
	<g>
		<g>
			<g>
				<path class="st2" d="M25.825,59.859c2.953,0.497,5.737,1.363,7.806,2.11c2.075,0.721,3.448,1.589,3.356,2.282
					c-0.092,0.693-1.677,1.039-4.03,0.976c-2.351-0.09-5.344-0.837-8.118-2.025c-2.857-1.224-4.747-2.162-6.708-2.926
					c-0.996-0.382-1.94-0.705-3.144-0.875c-1.188-0.205-2.515-0.39-4.099-0.578c1.594-0.025,2.931-0.071,4.142-0.118
					c1.202-0.086,2.373-0.007,3.446,0.1C20.657,59.023,22.781,59.345,25.825,59.859z"/>
			</g>
		</g>
	</g>
	<g>
		<g>
			<g>
				<path class="st2" d="M48.08,56.968c-0.434,1.203-1.023,2.459-1.597,3.478c-0.574,1.028-1.12,1.899-1.598,2.63
					c-0.472,0.728-0.874,1.317-1.248,1.769c-0.381,0.447-0.722,0.767-1.134,0.785c-0.386,0.019-0.806-0.319-1.058-1.012
					c-0.26-0.687-0.333-1.711-0.142-2.831c0.19-1.115,0.623-2.316,1.2-3.449c0.584-1.138,1.233-2.178,2.061-3.254
					c1.674-2.171,2.891-3.601,4.079-5.069c0.605-0.76,1.266-1.451,1.894-2.269c0.323-0.421,0.611-0.827,0.806-1.389
					c0.211-0.546,0.368-1.197,0.73-1.797c-0.25,0.654-0.272,1.288-0.36,1.89c-0.063,0.607-0.281,1.199-0.481,1.686
					c-0.405,1.008-0.801,1.862-1.086,2.732C49.544,52.655,48.994,54.437,48.08,56.968z"/>
			</g>
		</g>
	</g>
	<g>
		<g>
			<g>
				<path class="st3" d="M43.25,49.449c-0.32,1.142-0.783,2.233-1.33,3.201c-0.279,0.49-0.556,0.924-0.883,1.366
					c-0.309,0.412-0.591,0.728-0.84,0.996c-0.505,0.54-0.85,0.819-1.182,1.09c-0.331,0.257-0.594,0.622-0.971,0.783
					c-0.352,0.158-0.904-0.007-1.262-0.76c-0.355-0.737-0.319-1.88-0.022-2.864c0.141-0.5,0.334-0.986,0.52-1.425
					c0.17-0.409,0.387-0.888,0.619-1.343c0.469-0.924,1.038-1.877,1.708-2.794c1.38-1.892,2.359-3.216,3.311-4.574
					c0.467-0.672,0.966-1.381,1.423-2.139c0.454-0.769,0.781-1.814,1.528-2.794c-0.533,1.111-0.566,2.13-0.77,3.072
					c-0.221,0.953-0.409,1.733-0.575,2.561C44.188,45.459,43.907,47.095,43.25,49.449z"/>
			</g>
		</g>
	</g>
	<g>
		<g>
			<g>
				<path class="st3" d="M23.066,51.955c2.408,0.041,4.84,0.45,6.635,1.124c1.796,0.66,2.886,1.563,2.722,2.242
					c-0.166,0.689-1.463,1.007-3.291,1.056c-1.825,0.034-4.247-0.198-6.651-0.964c-2.472-0.778-4.141-1.566-5.706-2.256
					c-0.806-0.326-1.609-0.746-2.551-0.999c-0.94-0.253-2.007-0.514-3.281-0.795c1.302,0.069,2.395,0.098,3.403,0.105
					c1.006,0.007,1.872,0.161,2.763,0.206C18.918,51.82,20.574,51.921,23.066,51.955z"/>
			</g>
		</g>
	</g>
	<g>
		<g>
			<g>
				<path class="st3" d="M38.138,42.881c-0.432,1.846-1.275,3.513-2.178,4.656c-0.44,0.556-0.951,1.056-1.293,1.202
					c-0.355,0.147-0.671,0.296-1.027,0.344c-0.347,0.053-0.74-0.286-0.841-0.93c-0.095-0.641-0.08-1.197,0.046-1.933
					c0.252-1.431,0.946-3.192,2.048-4.764c1.058-1.486,1.904-2.675,2.694-3.785c0.41-0.557,0.728-1.108,1.105-1.806
					c0.38-0.669,0.829-1.487,1.668-2.062c-0.692,0.745-0.867,1.576-1.002,2.301c-0.116,0.728-0.204,1.458-0.339,2.122
					C38.77,39.558,38.597,41.002,38.138,42.881z"/>
			</g>
		</g>
	</g>
	<g>
		<g>
			<g>
				<path class="st3" d="M21.739,44.374c0.982,0.031,1.952,0.182,2.819,0.388c0.844,0.189,1.674,0.434,2.387,0.744
					c1.443,0.611,2.314,1.503,2.107,2.184c-0.206,0.682-1.238,1.037-2.705,1.144c-0.739,0.046-1.609,0.021-2.572-0.149
					c-0.935-0.177-1.878-0.463-2.81-0.854c-1.898-0.807-3.213-1.414-4.48-2.093c-0.632-0.324-1.259-0.636-1.993-0.907
					c-0.735-0.263-1.596-0.458-2.619-0.703c1.047,0.031,1.933-0.01,2.751,0.007c0.817,0.026,1.548,0.08,2.264,0.121
					C18.304,44.363,19.697,44.298,21.739,44.374z"/>
			</g>
		</g>
	</g>
	<g>
		<g>
			<g>
				<path class="st3" d="M34.73,36.772c-0.539,1.633-1.517,3.204-2.478,4.1c-0.934,0.841-1.712,1.264-2.363,1.068
					c-0.317-0.115-0.544-0.442-0.616-0.942c-0.076-0.496,0.017-1.152,0.225-1.811c0.406-1.294,1.11-2.726,2.279-4.066
					c1.2-1.395,2.032-2.187,2.695-3.161c0.33-0.473,0.602-1.032,0.906-1.673c0.308-0.634,0.637-1.382,1.238-2.084
					c-0.427,0.82-0.516,1.58-0.586,2.266c-0.064,0.688-0.081,1.329-0.181,2C35.661,33.792,35.27,35.096,34.73,36.772z"/>
			</g>
		</g>
	</g>
	<g>
		<g>
			<g>
				<path class="st3" d="M19.483,36.854c1.796-0.113,3.459,0.406,4.561,1.054c1.107,0.654,1.717,1.447,1.538,2.1
					c-0.179,0.656-1.136,1.002-2.381,1.013c-1.252,0.015-2.741-0.284-4.16-0.817c-0.738-0.277-1.362-0.482-1.957-0.65
					c-0.637-0.161-1.229-0.311-1.796-0.455c-1.174-0.311-2.543-0.707-3.735-1.992c0.728,0.482,1.433,0.669,2.051,0.71
					c0.622,0.039,1.167-0.058,1.723-0.182c0.562-0.141,1.149-0.289,1.78-0.447C17.787,37.037,18.567,36.912,19.483,36.854z"/>
			</g>
		</g>
	</g>
	<g>
		<g>
			<g>
				<path class="st4" d="M31.103,29.962c-0.164,0.997-0.564,1.972-0.915,2.683c-0.369,0.742-0.733,1.336-1.059,1.817
					c-0.33,0.481-0.622,0.846-0.91,1.151c-0.296,0.301-0.575,0.559-0.934,0.626c-0.337,0.065-0.737-0.128-1.024-0.629
					c-0.295-0.494-0.442-1.276-0.375-2.109c0.118-1.71,1.033-3.439,1.89-4.758c1.016-1.61,1.788-2.69,2.53-3.802
					c0.361-0.572,0.763-1.157,1.078-1.759c0.159-0.31,0.262-0.655,0.355-1.074c0.094-0.41,0.225-0.888,0.548-1.26
					c-0.436,0.892-0.066,1.713-0.222,2.525c-0.111,0.802-0.233,1.417-0.307,2.067C31.572,26.753,31.428,28.067,31.103,29.962z"/>
			</g>
		</g>
	</g>
	<g>
		<g>
			<g>
				<path class="st4" d="M16.064,29.074c1.635-0.097,3.209,0.227,4.348,0.741c0.594,0.268,0.977,0.54,1.272,0.851
					c0.295,0.311,0.481,0.651,0.47,0.987c-0.011,0.336-0.224,0.629-0.628,0.859c-0.404,0.232-1.02,0.393-1.615,0.465
					c-1.244,0.151-2.843-0.009-4.371-0.59c-1.574-0.597-2.638-1.08-3.722-1.529c-0.55-0.223-1.077-0.445-1.699-0.642
					c-0.623-0.203-1.35-0.404-2.114-0.797c0.839,0.201,1.548,0.169,2.199,0.133c0.658-0.043,1.263-0.074,1.841-0.129
					C13.217,29.318,14.38,29.174,16.064,29.074z"/>
			</g>
		</g>
	</g>
	<g>
		<g>
			<g>
				<path class="st4" d="M27.771,23.715c-0.23,0.964-0.596,1.731-0.882,2.315c-0.074,0.147-0.149,0.293-0.227,0.447
					c-0.095,0.187-0.186,0.346-0.279,0.499c-0.184,0.3-0.363,0.551-0.536,0.769c-0.344,0.435-0.659,0.729-0.957,0.952
					c-0.304,0.215-0.595,0.437-0.944,0.519c-0.338,0.082-0.745-0.109-1.01-0.626c-0.27-0.51-0.351-1.244-0.271-1.987
					c0.039-0.371,0.115-0.749,0.211-1.109c0.052-0.182,0.102-0.353,0.149-0.518c0.047-0.156,0.144-0.416,0.228-0.611
					c0.363-0.838,0.834-1.516,1.276-2.075c0.235-0.311,0.403-0.505,0.596-0.851c0.19-0.322,0.372-0.63,0.548-0.927
					c0.348-0.576,0.671-1.111,0.981-1.624c0.157-0.271,0.311-0.536,0.464-0.799c0.151-0.28,0.356-0.592,0.55-0.864
					c0.373-0.558,0.869-1.141,0.836-2.055c0.265,0.879-0.051,1.705-0.19,2.346c-0.082,0.338-0.127,0.609-0.145,0.92
					c-0.018,0.305-0.036,0.612-0.054,0.927c-0.024,0.599-0.048,1.223-0.075,1.895c-0.016,0.342-0.033,0.697-0.051,1.067
					C27.976,22.689,27.881,23.241,27.771,23.715z"/>
			</g>
		</g>
	</g>
	<g>
		<g>
			<g>
				<path class="st4" d="M14.315,22.788c2.507-0.064,4.549,1.329,4.307,2.488c-0.243,1.165-2.802,1.494-4.875,0.414
					c-0.997-0.506-1.803-0.829-2.611-1.138c-0.798-0.317-1.715-0.523-2.839-1.104c1.25,0.235,2.073-0.004,2.929-0.174
					C12.084,23.095,12.935,22.847,14.315,22.788z"/>
			</g>
		</g>
	</g>
	<g>
		<g>
			<g>
				<path class="st4" d="M22.314,18.092c-0.124,1.296-0.405,2.373-0.758,3.253c-0.357,0.865-0.805,1.582-1.447,1.679
					c-0.625,0.098-1.328-0.573-1.607-1.802c-0.29-1.213-0.039-2.901,0.798-4.213c0.424-0.686,0.842-1.201,1.157-1.598
					c0.33-0.427,0.623-0.837,0.911-1.259c0.583-0.839,1.096-1.761,1.933-2.999c-0.486,1.414-0.539,2.429-0.621,3.452
					c-0.036,0.514-0.065,1.034-0.135,1.625C22.464,16.852,22.37,17.43,22.314,18.092z"/>
			</g>
		</g>
	</g>
	<g>
		<g>
			<g>
				<path class="st5" d="M11.958,16.822c1.542-0.406,3.031,0.392,2.94,1.34c-0.092,0.948-1.593,1.592-3.022,1.031
					c-0.751-0.286-1.296-0.537-1.785-0.746c-0.506-0.195-1.029-0.386-1.833-0.309c0.725-0.358,1.3-0.521,1.848-0.719
					C10.677,17.234,11.178,17.035,11.958,16.822z"/>
			</g>
		</g>
	</g>
	<g>
		<g>
			<g>
				<path class="st5" d="M17.093,13.69c0.005,1.757-0.818,3.365-1.472,3.238c-0.654-0.127-0.818-1.925-0.157-3.554
					c0.681-1.678,1.077-2.264,1.625-4.029C16.938,11.188,17.087,11.88,17.093,13.69z"/>
			</g>
		</g>
	</g>
	<g>
		<g>
			<g>
				<path class="st5" d="M11.008,7.364c2.099,2.746,3.069,6.104,2.171,6.581c-0.897,0.477-3.234-2.182-4.42-5.418
					c-0.323-0.811-0.502-1.603-0.687-2.27c-0.174-0.669-0.335-1.288-0.49-1.884C7.218,3.056,7.517,1.803,7.306,0
					c0.506,1.749,0.617,3.061,1.301,3.979c0.341,0.488,0.696,0.995,1.079,1.542C10.079,6.065,10.439,6.657,11.008,7.364z"/>
			</g>
		</g>
	</g>
</g>
<g id="Layer_6">
	<g id="Layer_9">
		
			<radialGradient id="SVGID_1_" cx="21.175" cy="150.8589" r="36.5737" fx="-14.9378" fy="145.0704" gradientUnits="userSpaceOnUse">
			<stop  offset="0.2487" style="stop-color:#F97597"/>
			<stop  offset="0.3813" style="stop-color:#FBACBF"/>
			<stop  offset="0.5064" style="stop-color:#FDD8E0"/>
			<stop  offset="0.603" style="stop-color:#FEF4F4"/>
			<stop  offset="0.6593" style="stop-color:#FEFEFC"/>
			<stop  offset="1" style="stop-color:#FFF602"/>
		</radialGradient>
		<path class="st6" d="M42.35,157.089l-6.56,18l-0.83,2.27l-0.07,0.2l-0.29,0.79l-1.14-0.8c0,0-0.13-0.07-0.36-0.2
			c-0.19-0.09-0.47-0.24-0.8-0.42c-0.14-0.08-0.3-0.16-0.46-0.26h-0.01c-0.02-0.01-0.04-0.02-0.06-0.04
			c-2.71-1.47-8.06-4.47-11.33-6.9c-0.04-0.02-0.07-0.05-0.1-0.08c-0.94-0.69-1.7-1.34-2.16-1.89c0,0-0.01,0-0.01-0.01
			c-2.67-3.16-15.65-23.8-16.16-26.74c-0.2-1.17-1.05-4.45-2.01-7.97v-9.67c0.47,0.18,0.97,0.34,1.46,0.44
			c2.29,0.49,18.82,3.94,25.6,10.24c6.78,6.3,7.75,7.68,10.38,12.94c0.8,1.61,1.57,3.18,2.25,4.58c0.58,1.17,1.09,2.23,1.5,3.1
			c0.3,0.61,0.55,1.13,0.73,1.52C42.2,156.769,42.35,157.089,42.35,157.089z"/>
	</g>
	<radialGradient id="SVGID_2_" cx="16.79" cy="153.9974" r="31.2465" fx="-13.9619" fy="148.4598" gradientUnits="userSpaceOnUse">
		<stop  offset="0" style="stop-color:#FFF602"/>
		<stop  offset="0.1915" style="stop-color:#FEFEFC"/>
		<stop  offset="0.6047" style="stop-color:#E95C5F"/>
		<stop  offset="0.6422" style="stop-color:#F2534B"/>
		<stop  offset="0.6915" style="stop-color:#FC4A36"/>
		<stop  offset="0.7244" style="stop-color:#FF472F"/>
	</radialGradient>
	<path class="st7" d="M33.58,175.559c-0.64,0.92-1.13,1.19-1.81,1.07c-0.05,0-0.1-0.01-0.16-0.03c-0.01,0-0.02-0.01-0.04-0.01
		c-0.01,0-0.02-0.01-0.04-0.01c-0.28-0.07-0.59-0.2-0.95-0.36c-0.15-0.07-0.3-0.14-0.45-0.22c-0.09-0.05-0.19-0.09-0.29-0.14
		c-0.2-0.09-0.42-0.2-0.65-0.32c-0.12-0.05-0.24-0.12-0.36-0.18c-0.53-0.27-1.77-0.92-3.47-2c-0.06-0.04-0.13-0.08-0.21-0.14
		c-0.05-0.03-0.09-0.06-0.14-0.09c-0.14-0.09-0.31-0.2-0.51-0.34c-0.15-0.1-0.3-0.2-0.45-0.31c-0.02-0.01-0.04-0.03-0.06-0.04
		c-1.02-0.7-2-1.44-2.96-2.22c-0.2-0.15-0.39-0.32-0.59-0.49c-0.04-0.02-0.07-0.05-0.1-0.08c-0.17-0.13-0.32-0.27-0.48-0.41
		c-0.19-0.17-0.39-0.34-0.59-0.51c-0.19-0.17-0.39-0.34-0.59-0.52c-0.17-0.15-0.33-0.3-0.5-0.45c0,0-0.01,0-0.01-0.01
		c-0.03-0.02-0.05-0.04-0.08-0.07c-4.58-4.23-8.91-8.98-12.18-14.36c-3.21-5.3-4.73-10.83-5.91-16.77v-5.21
		c0.06,0.21,0.14,0.42,0.21,0.63c2.79,7.92,5.79,13.63,8.82,17.33c8.14,9.94,19.58,22.34,21.51,23.89
		C32.07,174.409,33.58,175.559,33.58,175.559z"/>
	<g id="Layer_10">
		<radialGradient id="SVGID_3_" cx="55.4673" cy="151.4949" r="37.7528" fx="53.3628" fy="189.189" gradientUnits="userSpaceOnUse">
			<stop  offset="0" style="stop-color:#FFF602"/>
			<stop  offset="0.3407" style="stop-color:#FEFEFC"/>
			<stop  offset="0.397" style="stop-color:#FEF4F4"/>
			<stop  offset="0.4936" style="stop-color:#FDD8E0"/>
			<stop  offset="0.6187" style="stop-color:#FBACBF"/>
			<stop  offset="0.7513" style="stop-color:#F97597"/>
		</radialGradient>
		<path class="st8" d="M34.306,175.845c0,0-1.591-4.976-0.636-6.959c0.955-1.983,11.797-23.443,15.932-26.685
			c4.135-3.241,23.884-18.889,23.888-18.893c-0.007,0.005,3.314,10.735,3.508,11.914c0.687,4.179,0.788,8.463,0.119,12.651
			c-1.396,8.742-6.501,16.491-12.074,23.18c-0.858,1.03-1.762,2.053-2.907,2.749c-2.31,1.404-5.472,1.694-8.075,2.311
			c-2.748,0.652-5.537,1.162-8.31,1.694c-0.631,0.121-10.055,2.118-10.147,1.847C35.604,179.656,34.306,175.845,34.306,175.845z"/>
	</g>
	<radialGradient id="SVGID_4_" cx="53.4746" cy="148.855" r="35.9582" fx="38.6401" fy="181.6106" gradientUnits="userSpaceOnUse">
		<stop  offset="0.2756" style="stop-color:#FF472F"/>
		<stop  offset="0.3252" style="stop-color:#FC4A36"/>
		<stop  offset="0.3994" style="stop-color:#F2534B"/>
		<stop  offset="0.456" style="stop-color:#E95C5F"/>
		<stop  offset="0.7742" style="stop-color:#FEFEFC"/>
		<stop  offset="1" style="stop-color:#FFF602"/>
	</radialGradient>
	<path class="st9" d="M35.978,174.401c-0.71-0.384-2.087-1.349-2.354-2.133c-0.528-1.55,0.353-4.768,0.599-6.36
		c0.803-5.195,2.732-10.218,5.64-14.599c2.792-4.206,6.421-7.777,10.022-11.315c3.967-3.897,7.961-7.822,12.488-11.076
		c2.21-1.589,4.383-2.864,6.892-3.773c1.049-0.38,3.529-0.793,4.224-1.835c-1.5,2.25-4.753,4.263-6.747,6.088
		c-4.293,3.93-8.502,7.932-12.896,11.72c-8.309,7.163-14.01,16.852-16.674,27.462C36.691,170.502,36.336,172.449,35.978,174.401z"/>
	<g id="Layer_11">
		
			<radialGradient id="SVGID_5_" cx="67.9058" cy="188.0442" r="39.6322" fx="34.2057" fy="208.9013" gradientUnits="userSpaceOnUse">
			<stop  offset="0" style="stop-color:#FFF602"/>
			<stop  offset="0.3407" style="stop-color:#FEFEFC"/>
			<stop  offset="0.397" style="stop-color:#FEF4F4"/>
			<stop  offset="0.4936" style="stop-color:#FDD8E0"/>
			<stop  offset="0.6187" style="stop-color:#FBACBF"/>
			<stop  offset="0.7513" style="stop-color:#F97597"/>
		</radialGradient>
		<path class="st10" d="M35.951,177.675c2.188-4.53,7.596-5.537,12.034-6.645c6.976-1.74,14.254-2.278,21.409-1.551
			c7.658,0.778,15.224,4.39,20.755,9.718c2.029,1.954,3.702,4.047,5.031,6.511c1.137,2.108,2.267,4.22,3.397,6.332
			c0.617,1.153,1.233,2.305,1.848,3.459c-0.05-0.094-23.494,9.308-25.967,10.048c-5.898,1.765-12.292,1.826-18.231,0.216
			c-2.78-0.753-5.325-2.035-7.989-3.077c-2.505-0.98-5.308-2.258-6.654-4.735c-1.199-2.207-1.948-4.724-2.726-7.101
			c-0.879-2.686-1.682-5.399-2.425-8.126c-0.196-0.719-1.336-3.301-0.975-4.034C35.606,178.389,35.948,177.681,35.951,177.675z"/>
	</g>
	<radialGradient id="SVGID_6_" cx="69.0827" cy="181.743" r="37.9242" fx="31.7588" fy="175.022" gradientUnits="userSpaceOnUse">
		<stop  offset="0.2756" style="stop-color:#FF472F"/>
		<stop  offset="0.3252" style="stop-color:#FC4A36"/>
		<stop  offset="0.3994" style="stop-color:#F2534B"/>
		<stop  offset="0.456" style="stop-color:#E95C5F"/>
		<stop  offset="0.7095" style="stop-color:#FEFEFC"/>
		<stop  offset="1" style="stop-color:#FFF602"/>
	</radialGradient>
	<path class="st11" d="M37.839,176.908c-0.09,0.063-0.12-1.264-0.082-1.398c0.135-0.483,0.463-0.828,0.808-1.169
		c0.321-0.318,0.779-0.55,1.157-0.791c1.336-0.85,2.763-1.571,4.204-2.223c4.503-2.038,9.428-3.34,14.392-3.34
		c10.112,0,13.92,0.394,18.516,2.232c4.596,1.839,10.402,4.714,13.767,8.534c3.366,3.821,9.37,15.101,9.552,15.556
		c0.182,0.455,0.272,1.192,0.272,1.192c-2.417-4.654-4.769-9.548-8.222-13.535c-9.728-11.234-24.492-13.074-38.498-11.003
		C48.066,171.795,42.5,173.628,37.839,176.908z"/>
	<g id="Layer_12">
		
			<radialGradient id="SVGID_7_" cx="33.1513" cy="203.2103" r="34.8163" fx="15.4169" fy="173.2492" gradientUnits="userSpaceOnUse">
			<stop  offset="0" style="stop-color:#FFF602"/>
			<stop  offset="0.3407" style="stop-color:#FEFEFC"/>
			<stop  offset="0.397" style="stop-color:#FEF4F4"/>
			<stop  offset="0.4936" style="stop-color:#FDD8E0"/>
			<stop  offset="0.6187" style="stop-color:#FBACBF"/>
			<stop  offset="0.7513" style="stop-color:#F97597"/>
		</radialGradient>
		<path class="st12" d="M34.756,177.3c0,0,5.329,1.602,6.749,2.612c1.419,1.01,10.42,11.37,11.076,15.588
			c0.656,4.218-0.109,12.529-2.625,16.247s-9.085,12.033-9.085,12.033s-6.847,5.98-6.847,5.98
			c-6.119-1.516-13.907-3.602-17.067-9.616c-2.688-5.115-3.84-11.542-3.346-17.27c0.419-4.863,2.344-9.507,4.934-13.603
			c2.032-3.212,4.496-6.614,7.671-8.764c2.104-1.425,4.338-2.688,6.599-3.848L34.756,177.3z"/>
	</g>
	<radialGradient id="SVGID_8_" cx="44.0281" cy="204.2255" r="30.3861" fx="21.5462" fy="183.7834" gradientUnits="userSpaceOnUse">
		<stop  offset="0.2756" style="stop-color:#FF472F"/>
		<stop  offset="0.3008" style="stop-color:#FC4A36"/>
		<stop  offset="0.3385" style="stop-color:#F2534B"/>
		<stop  offset="0.3673" style="stop-color:#E95C5F"/>
		<stop  offset="0.6443" style="stop-color:#FEFEFC"/>
		<stop  offset="1" style="stop-color:#FFF602"/>
	</radialGradient>
	<path class="st13" d="M36.332,178.954c1.215-0.425,2.612-0.319,3.769,0.2c3.439,1.541,6.401,5.18,8.775,8.031
		c2.473,2.97,4.302,6.361,4.893,10.214c1.853,12.083-6.381,20.937-14.973,28.173c-1.85,1.558-4.772,4.188-4.772,4.188
		c2.134-2.034,4.25-4.09,6.313-6.196c3.602-3.676,6.419-8.264,8.605-12.913c1.712-3.642,3.202-7.845,2.947-11.93
		c-0.358-5.73-4.97-11.527-9.099-15.222c-1.85-1.656-4.285-3.311-5.552-3.994C36.919,179.335,36.601,179.178,36.332,178.954z"/>
	<g id="Layer_13">
		
			<radialGradient id="SVGID_9_" cx="12.5293" cy="177.3568" r="23.7065" fx="-0.7651" fy="196.9848" gradientUnits="userSpaceOnUse">
			<stop  offset="0.247" style="stop-color:#F97597"/>
			<stop  offset="0.386" style="stop-color:#FBACBF"/>
			<stop  offset="0.5172" style="stop-color:#FDD8E0"/>
			<stop  offset="0.6184" style="stop-color:#FEF4F4"/>
			<stop  offset="0.6774" style="stop-color:#FEFEFC"/>
			<stop  offset="1" style="stop-color:#FFF602"/>
		</radialGradient>
		<path class="st14" d="M34.79,177.129c0,0,0,0.03-0.02,0.08v0.01c0,0.02,0,0.05-0.01,0.08c-0.02,0.2-0.08,0.58-0.16,1.05
			c-0.02,0.11-0.04,0.22-0.06,0.34c-0.07,0.37-0.15,0.78-0.24,1.21c-0.21,0.91-0.47,1.87-0.79,2.59c-0.11,0.23-0.23,0.46-0.37,0.69
			c-1.05,1.49-10.59,6.87-11.57,7.07c-0.22,0.04-1.62,0.08-3.69,0.11h-0.01c-4.56,0.07-12.35,0.08-17.87-0.04v-26.91
			c3.32-1.14,6.86-1.66,10.39-1.48c0.39,0.02,0.71,0.1,0.79,0.12c1.06,0.26,1.76,0.89,2.05,1.15c1.35,1.24,3.09,2.88,4.86,4.48
			c0.03,0.03,0.05,0.05,0.08,0.07c0,0.01,0.01,0.01,0.01,0.01c0.17,0.15,0.33,0.3,0.5,0.45c0.2,0.18,0.4,0.35,0.59,0.52
			c0.2,0.17,0.4,0.34,0.59,0.51c0.16,0.14,0.31,0.28,0.48,0.41c0.03,0.03,0.06,0.06,0.1,0.08c0.2,0.17,0.39,0.34,0.59,0.49
			c0.37,0.31,0.73,0.6,1.08,0.87c0.67,0.51,1.32,0.98,1.88,1.35c0.18,0.13,0.35,0.25,0.51,0.35c0.2,0.14,0.37,0.25,0.51,0.34
			c0.05,0.03,0.09,0.06,0.14,0.09c0.08,0.06,0.15,0.1,0.21,0.14c1.7,1.08,2.94,1.73,3.47,2c0.12,0.06,0.24,0.13,0.36,0.18
			c0.23,0.12,0.45,0.23,0.65,0.32c0.1,0.05,0.2,0.09,0.29,0.14c0.63,0.29,1.1,0.47,1.44,0.59c0.02,0,0.03,0.01,0.04,0.01
			c0.08,0.03,0.15,0.05,0.22,0.07h0.01c0.14,0.04,0.25,0.08,0.35,0.1c0.1,0.03,0.19,0.05,0.28,0.07c0.32,0.07,0.61,0.13,0.89,0.17
			c0.27,0.04,0.53,0.07,0.76,0.08c0.23,0.02,0.44,0.03,0.62,0.04H34.79z"/>
	</g>
	<radialGradient id="SVGID_10_" cx="10.6776" cy="186.287" r="18.2136" fx="-2.3878" fy="198.9768" gradientUnits="userSpaceOnUse">
		<stop  offset="0" style="stop-color:#FFF602"/>
		<stop  offset="0.3421" style="stop-color:#FEFEFC"/>
		<stop  offset="0.7103" style="stop-color:#E95C5F"/>
		<stop  offset="0.777" style="stop-color:#F2534B"/>
		<stop  offset="0.8645" style="stop-color:#FC4A36"/>
		<stop  offset="0.923" style="stop-color:#FF472F"/>
	</radialGradient>
	<path class="st15" d="M34.3,180.269c-0.17,0.78-0.44,1.52-0.79,2.22c-0.11,0.23-0.23,0.46-0.37,0.69c-0.96,1.64-2.36,3.03-3.95,4.1
		c-2.45,1.65-4.99,3.34-7.79,4.34c-1.62,0.59-3.29,1.11-4.99,1.51c-2.3,0.55-4.66,0.9-7.03,0.91c-3.25,0.02-6.33-0.78-9.38-1.78
		v-2.78c0.23,0.01,0.47,0.01,0.7,0.02c6.65,0.13,12.84-0.13,18.9-1.84c2.53-0.71,5.03-1.67,7.54-2.95c1.41-0.72,2.77-1.65,3.8-2.87
		c0.9-1.06,1.29-2.89,2.64-3.47c0.43-0.18,0.66,0.92,0.72,1.53C34.31,180.079,34.31,180.219,34.3,180.269z"/>
	<g id="Layer_24">
		
			<radialGradient id="SVGID_11_" cx="34.7625" cy="176.409" r="4.9266" fx="35.8051" fy="174.7713" gradientTransform="matrix(0.9646 0.2638 -0.2638 0.9646 47.7632 -3.009)" gradientUnits="userSpaceOnUse">
			<stop  offset="0" style="stop-color:#D23C25"/>
			<stop  offset="0.0675" style="stop-color:#D44623"/>
			<stop  offset="0.1832" style="stop-color:#DB621E"/>
			<stop  offset="0.3332" style="stop-color:#E68E15"/>
			<stop  offset="0.5097" style="stop-color:#F5CC0A"/>
			<stop  offset="0.6211" style="stop-color:#FFF602"/>
		</radialGradient>
		<path class="st16" d="M32.398,178.082l0.714-0.746c0.457-0.478,0.65-1.15,0.516-1.797l-0.209-1.011l0.93,0.449
			c0.596,0.287,1.294,0.263,1.869-0.064l0.897-0.512l-0.139,1.023c-0.089,0.655,0.15,1.312,0.639,1.757l0.764,0.695l-1.016,0.184
			c-0.651,0.118-1.202,0.548-1.474,1.15l-0.425,0.941l-0.489-0.909c-0.313-0.582-0.892-0.974-1.55-1.046L32.398,178.082z"/>
	</g>
</g>
<g id="Layer_14">
	<g id="Layer_19">
		
			<radialGradient id="SVGID_12_" cx="37.6187" cy="107.8525" r="30.783" fx="43.9286" fy="109.2877" gradientUnits="userSpaceOnUse">
			<stop  offset="0" style="stop-color:#FFF602"/>
			<stop  offset="0.3709" style="stop-color:#FEFFFC"/>
			<stop  offset="0.4909" style="stop-color:#F5F5F9"/>
			<stop  offset="0.6965" style="stop-color:#DED9F1"/>
			<stop  offset="0.9613" style="stop-color:#B8ADE5"/>
			<stop  offset="1" style="stop-color:#B2A6E3"/>
		</radialGradient>
		<path class="st17" d="M34.838,120.6c0,0-2.221-1.918-3.295-3.61c-2.949-4.644-5.21-9.877-7.675-14.785
			c-3.487-6.944-8.338-14.344-5.703-22.387c1.019-3.111,2.93-5.852,5.009-8.381c1.371-1.668,2.857-3.293,4.722-4.383
			c4.915-2.873,12.903-0.718,17.497,1.985c5.007,2.946,8.557,8.454,8.766,14.307c0.073,2.057-0.223,4.114-0.712,6.113
			c-1.77,7.234-6.354,13.966-9.854,20.49c-0.385,0.717-6.333,11.913-6.399,11.879C37.193,121.829,34.838,120.6,34.838,120.6z"/>
	</g>
	<radialGradient id="SVGID_13_" cx="29.1698" cy="94.3778" r="24.2073" fx="24.3772" fy="92.6672" gradientUnits="userSpaceOnUse">
		<stop  offset="0" style="stop-color:#FFF602"/>
		<stop  offset="0.3562" style="stop-color:#FEFFFC"/>
		<stop  offset="0.3961" style="stop-color:#F5F5F9"/>
		<stop  offset="0.4643" style="stop-color:#DED9F1"/>
		<stop  offset="0.5523" style="stop-color:#B8ADE5"/>
		<stop  offset="0.5652" style="stop-color:#B2A6E3"/>
		<stop  offset="0.9861" style="stop-color:#FF73B7"/>
	</radialGradient>
	<path class="st18" d="M35.741,118.452c0,0-1.704,1.18-2.36,0.787c-1.073-0.644-1.987-2.617-2.679-3.605
		c-1.8-2.569-3.553-5.172-5.269-7.797c-2.623-4.011-5.466-7.987-7.118-12.526c-1.54-4.23-2.302-10.217-0.535-14.486
		c1.573-3.802,1.573-3.802,1.573-3.802s-4.195,6.031,0.524,15.471s14.028,22.813,14.946,24.386
		C35.741,118.452,35.741,118.452,35.741,118.452z"/>
	<g id="Layer_20">
		
			<radialGradient id="SVGID_14_" cx="46.9742" cy="116.6321" r="37.8535" fx="49.173" fy="124.2797" gradientTransform="matrix(0.0145 0.9999 -0.8847 0.0128 149.4839 68.1694)" gradientUnits="userSpaceOnUse">
			<stop  offset="0" style="stop-color:#FFF602"/>
			<stop  offset="0.4178" style="stop-color:#FEFFFC"/>
			<stop  offset="0.5099" style="stop-color:#F5F5F9"/>
			<stop  offset="0.6676" style="stop-color:#DED9F1"/>
			<stop  offset="0.8709" style="stop-color:#B8ADE5"/>
			<stop  offset="0.9006" style="stop-color:#B2A6E3"/>
		</radialGradient>
		<path class="st19" d="M36.361,120.461l5.931-20.809c0,0,5.138-9.796,11.42-11.626c3.394-0.988,6.951-1.449,10.474-1.637
			c3.562-0.19,6.055,0.271,9.428,1.498c0.768,0.279,1.544,0.563,2.224,1.017c5.607,3.747,6.12,12.51,5.248,18.44
			c-1.439,9.794-11.81,14.155-20.546,14.508c-7.41,0.299-14.76-0.498-22.151-0.498C37.57,121.355,36.361,120.461,36.361,120.461z"/>
	</g>
	<g id="Layer_15">
		
			<radialGradient id="SVGID_15_" cx="68.7267" cy="92.0372" r="25.2241" fx="64.1206" fy="89.4103" gradientTransform="matrix(0.0145 0.9999 -1.1797 0.0171 176.304 21.7463)" gradientUnits="userSpaceOnUse">
			<stop  offset="0" style="stop-color:#FFF602"/>
			<stop  offset="0.0077" style="stop-color:#FEFFFC"/>
			<stop  offset="0.256" style="stop-color:#E7E4F4"/>
			<stop  offset="0.7299" style="stop-color:#B2A6E3"/>
			<stop  offset="0.9861" style="stop-color:#FF73B7"/>
		</radialGradient>
		<path class="st20" d="M38.601,118.335c-0.343,0.392-0.735,0.581-1.172,0.406c-0.486-0.194-1.361-1.458-0.972-2.138
			c1.26-2.206,1.624-5.435,2.336-7.852c1.22-4.141,2.191-8.748,4.342-12.518c2.139-3.748,6.04-6.967,9.918-8.783
			c3.586-1.68,7.696-2.038,11.607-1.852c1.436,0.068,2.883,0.18,4.309,0.387c0.749,0.108,1.503,0.288,2.18,0.635
			c0.664,0.34,1.188,0.972,1.944,1.12c-4.652-0.91-9.643-1.426-14.357-0.283c-3.882,0.942-7.899,2.518-10.578,5.604
			c-2.724,3.138-3.983,7.339-5.278,11.21c-0.854,2.551-1.585,5.144-2.19,7.765C40.23,114.037,40.013,116.718,38.601,118.335z"/>
	</g>
	<g id="Layer_21">
		
			<radialGradient id="SVGID_16_" cx="40.8947" cy="123.3671" r="26.5314" fx="35.3248" fy="123.6543" gradientUnits="userSpaceOnUse">
			<stop  offset="0" style="stop-color:#FFF602"/>
			<stop  offset="0.4691" style="stop-color:#FEFFFC"/>
			<stop  offset="0.5631" style="stop-color:#F5F5F9"/>
			<stop  offset="0.7241" style="stop-color:#DED9F1"/>
			<stop  offset="0.9316" style="stop-color:#B8ADE5"/>
			<stop  offset="0.9619" style="stop-color:#B2A6E3"/>
		</radialGradient>
		<path class="st21" d="M35.741,119.318c0,0,4.921-4.872,5.504-5.617c0.583-0.744,9.96-3.934,13.482-3.19
			c3.522,0.744,9.284,3.376,10.15,4.347c0.866,0.971,3.154,6.816,3.154,8.198c0,2.542,0.603,6.203-0.548,8.488
			c-1.338,2.657-2.636,5.642-4.464,8.002c-1.699,2.193-4.13,3.672-6.365,5.249c-1.888,1.331-3.719,2.784-5.83,3.722
			c-5.5,2.444-10.24-0.646-12.435-5.802c-1.808-4.248-2.508-14.357-2.647-15.879C35.602,125.315,35.741,119.318,35.741,119.318z"/>
	</g>
	<g id="Layer_16">
		
			<radialGradient id="SVGID_17_" cx="58.4245" cy="121.8038" r="17.8234" fx="54.8958" fy="120.5443" gradientUnits="userSpaceOnUse">
			<stop  offset="0" style="stop-color:#FFF602"/>
			<stop  offset="0.3562" style="stop-color:#FEFFFC"/>
			<stop  offset="0.3961" style="stop-color:#F5F5F9"/>
			<stop  offset="0.4643" style="stop-color:#DED9F1"/>
			<stop  offset="0.5523" style="stop-color:#B8ADE5"/>
			<stop  offset="0.5652" style="stop-color:#B2A6E3"/>
			<stop  offset="0.9861" style="stop-color:#FF73B7"/>
		</radialGradient>
		<path class="st22" d="M39.354,114.429c2.202-1.72,7.472-3.571,8.325-3.842c3.223-1.023,6.8-1.412,10.098-0.521
			c3.212,0.868,5.967,3.402,8.062,5.877c3.401,4.016,4.049,10.512,2.127,15.406c-1.052,2.678-4.878,8.034-4.878,8.034
			s3.061-4.495,3.73-8.225c0.767-4.274,0.953-8.11-0.955-12.09c-0.585-1.221-1.203-2.449-2.118-3.447
			c-3.855-4.202-11.179-5.423-16.277-3.259c-0.718,0.305-8.746,4.099-8.96,3.78C38.174,115.64,38.569,115.043,39.354,114.429z"/>
	</g>
	<g id="Layer_22">
		
			<radialGradient id="SVGID_18_" cx="32.5249" cy="122.1826" r="27.7068" fx="28.1976" fy="118.2842" gradientUnits="userSpaceOnUse">
			<stop  offset="0" style="stop-color:#FFF602"/>
			<stop  offset="0.4774" style="stop-color:#FEFFFC"/>
			<stop  offset="0.5563" style="stop-color:#F5F5F9"/>
			<stop  offset="0.6914" style="stop-color:#DED9F1"/>
			<stop  offset="0.8655" style="stop-color:#B8ADE5"/>
			<stop  offset="0.8909" style="stop-color:#B2A6E3"/>
		</radialGradient>
		<path class="st23" d="M37.341,119.318c0,0,4.649,0.33,6.673,2.797s3.219,7.548,3.002,8.853c-0.217,1.304-0.8,4.47-2.092,6.002
			c-1.293,1.532-4.165,3.925-4.691,4.308c-0.527,0.383-3.925,2.776-6.558,3.016c-6.776,0.616-13.989,0.256-19.773-3.696
			c-4.473-3.055-9.28-9.123-9.28-14.851c0-1.354,0.483-1.644,0.87-1.934s3.964-1.74,6.478-2.707
			c2.514-0.967,16.921-1.791,17.211-1.573S37.341,119.318,37.341,119.318z"/>
	</g>
	<g id="Layer_17">
		
			<radialGradient id="SVGID_19_" cx="43.216" cy="129.5904" r="25.3034" fx="32.7944" fy="131.0622" gradientUnits="userSpaceOnUse">
			<stop  offset="0" style="stop-color:#FF73B7"/>
			<stop  offset="0.3673" style="stop-color:#B2A6E3"/>
			<stop  offset="0.3803" style="stop-color:#B8ADE5"/>
			<stop  offset="0.4692" style="stop-color:#DED9F1"/>
			<stop  offset="0.5383" style="stop-color:#F5F5F9"/>
			<stop  offset="0.5786" style="stop-color:#FEFFFC"/>
			<stop  offset="0.9944" style="stop-color:#F97597"/>
		</radialGradient>
		<path class="st24" d="M37.356,120.459c-0.043-0.097-0.057-0.197-0.034-0.3c0.264-1.186,3.083-0.376,3.718-0.084
			c2.721,1.247,5.086,3.887,6.051,6.702c2.737,7.984-5.026,15.459-12.252,17.265c2.026-0.506,3.834-2.083,5.493-3.289
			c1.574-1.144,3.122-2.419,4.196-4.064c1.512-2.316,1.917-5.95,1.405-8.621c-0.581-3.035-2.637-4.998-5.462-6.026
			C39.598,121.725,37.784,121.419,37.356,120.459z"/>
	</g>
	<g id="Layer_23">
		
			<radialGradient id="SVGID_20_" cx="25.2334" cy="114.7981" r="23.7061" fx="30.2505" fy="106.9174" gradientUnits="userSpaceOnUse">
			<stop  offset="0.0353" style="stop-color:#FFF602"/>
			<stop  offset="0.4407" style="stop-color:#FEFFFC"/>
			<stop  offset="0.5306" style="stop-color:#F5F5F9"/>
			<stop  offset="0.6847" style="stop-color:#DED9F1"/>
			<stop  offset="0.8831" style="stop-color:#B8ADE5"/>
			<stop  offset="0.9121" style="stop-color:#B2A6E3"/>
		</radialGradient>
		<path class="st25" d="M37.356,120.459c0,0-0.962,2.141-2.518,2.849c-1.556,0.708-15.265,1.937-17.529,1.168
			c-2.264-0.769-12.205-8.175-13.471-11.121c-1.402-3.262-1.311-7.614-1.225-11.088c0.128-5.169,2.421-8.879,4.76-13.413
			c0.502-0.974,1.027-1.976,1.875-2.67c1.569-1.286,4.296-0.54,5.952,0.268c1.135,0.554,1.561,0.9,1.561,0.9s0.222,4.66,1.417,7.569
			c1.195,2.91,2.697,5.987,4.73,9.076c2.033,3.088,8.372,12.555,8.372,12.555s1.352,2.311,1.887,2.537
			c0.534,0.226,0.694,0.306,1.191,0.092c0.498-0.214,0.9-0.341,1.383-0.168C36.224,119.187,37.356,120.459,37.356,120.459z"/>
	</g>
	<g id="Layer_18">
		
			<radialGradient id="SVGID_21_" cx="11.1554" cy="110.9329" r="16.8345" fx="8.5955" fy="113.3764" gradientUnits="userSpaceOnUse">
			<stop  offset="0" style="stop-color:#FFF602"/>
			<stop  offset="0.3562" style="stop-color:#FEFFFC"/>
			<stop  offset="0.3961" style="stop-color:#F5F5F9"/>
			<stop  offset="0.4643" style="stop-color:#DED9F1"/>
			<stop  offset="0.5523" style="stop-color:#B8ADE5"/>
			<stop  offset="0.5652" style="stop-color:#B2A6E3"/>
			<stop  offset="0.9861" style="stop-color:#FF73B7"/>
		</radialGradient>
		<path class="st26" d="M34.859,119.376c0.356-0.046,0.713,0.044,1.067,0.37c0.643,0.591,0.724,1.813,0.261,2.523
			c-0.387,0.594-1.051,0.941-1.698,1.23c-6.234,2.79-13.321,4.221-19.71,1.203c-4.003-1.891-7.474-4.892-9.938-8.569
			c-3.051-4.554-2.724-9.201-2.195-14.498c0.13-1.301,0.131-1.307,0.131-1.307c-0.294,2.94-0.312,5.874,0.429,8.762
			c1.419,5.533,6.066,8.921,10.94,11.474c5.594,2.93,12.929,3.145,18.541-0.009C33.382,120.164,34.118,119.473,34.859,119.376z"/>
	</g>
	<g id="Layer_25">
		
			<radialGradient id="SVGID_22_" cx="20.076" cy="119.6625" r="7.717" fx="21.6809" fy="117.2831" gradientTransform="matrix(0.9419 0.3359 -0.3359 0.9419 56.9157 -1.8265)" gradientUnits="userSpaceOnUse">
			<stop  offset="0.069" style="stop-color:#FE4E76"/>
			<stop  offset="0.1053" style="stop-color:#FE586F"/>
			<stop  offset="0.1674" style="stop-color:#FE745C"/>
			<stop  offset="0.248" style="stop-color:#FEA03D"/>
			<stop  offset="0.3429" style="stop-color:#FFDE13"/>
			<stop  offset="0.3778" style="stop-color:#FFF602"/>
		</radialGradient>
		<path class="st27" d="M33.936,119.796l0.696-0.625c0.446-0.4,0.666-0.994,0.589-1.589l-0.12-0.928l0.81,0.469
			c0.519,0.3,1.152,0.326,1.693,0.07l0.845-0.401l-0.196,0.915c-0.125,0.586,0.045,1.196,0.457,1.632l0.643,0.68l-0.931,0.096
			c-0.596,0.062-1.124,0.413-1.411,0.939l-0.448,0.821l-0.379-0.855c-0.243-0.548-0.74-0.941-1.329-1.052L33.936,119.796z"/>
	</g>
	<g>
	</g>
	<g>
	</g>
	<g>
	</g>
	<g>
	</g>
	<g>
	</g>
</g>
</svg>
