<?xml version="1.0" encoding="utf-8"?>
<!-- Generator: Adobe Illustrator 24.0.3, SVG Export Plug-In . SVG Version: 6.00 Build 0)  -->
<svg version="1.1" xmlns="http://www.w3.org/2000/svg" xmlns:xlink="http://www.w3.org/1999/xlink" x="0px" y="0px"
	 viewBox="0 0 61.554 73.272" style="enable-background:new 0 0 61.554 73.272;" xml:space="preserve">
<style type="text/css">
	.st0{fill:#704C22;stroke:#3F362C;stroke-width:0.5;stroke-linecap:round;stroke-linejoin:round;stroke-miterlimit:10;}
	.st1{fill:#A58A53;stroke:#3F362C;stroke-width:0.5;stroke-linecap:round;stroke-linejoin:round;stroke-miterlimit:10;}
	.st2{display:none;}
	.st3{display:inline;fill:#E8EDD5;}
	.st4{fill:#E8EDD5;}
	.st5{fill:#96701D;stroke:#2E241A;stroke-width:0.25;stroke-miterlimit:10;}
	.st6{fill:#BDA346;stroke:#2E241A;stroke-width:0.25;stroke-miterlimit:10;}
	.st7{fill:#A69776;}
	.st8{fill:#3F362C;}
	.st9{fill:#96701D;stroke:#2E241A;stroke-width:0.25;stroke-linecap:round;stroke-linejoin:round;stroke-miterlimit:10;}
	.st10{fill:#BDA346;stroke:#2E241A;stroke-width:0.25;stroke-linecap:round;stroke-linejoin:round;stroke-miterlimit:10;}
	.st11{fill:#A58A53;stroke:#3F362C;stroke-width:0.6078;stroke-linecap:round;stroke-linejoin:round;stroke-miterlimit:10;}
</style>
<g id="left_arm">
	<path class="st0" d="M28.998,48.933c0,0,3.073-6.914,3.073-7.571c0-0.657,1.442-1.643,2.58-2.781
		c1.138-1.138,2.428-3.115,2.428-3.115h5.693c0,0-3.189,5.391-4.175,7.136s-1.745,3.338-1.669,4.932
		c0.076,1.593,0.152,3.111,0.152,3.111h-6.145l-2.26-1.062L28.998,48.933z"/>
</g>
<g id="Layer_19">
	<path class="st1" d="M23.536,36.829c0,0-0.485-0.592-0.662-1.115c-0.177-0.523,1-0.65,1.381-0.523
		c0.382,0.127,1.177,0.795,1.05,1.24C25.178,36.878,23.536,36.829,23.536,36.829z"/>
</g>
<g id="bars" class="st2">
	<path class="st3" d="M63.946,3.989H0.994C-0.103,3.989-1,3.091-1,1.994v0C-1,0.897-0.103,0,0.994,0l62.952,0
		c1.097,0,1.994,0.897,1.994,1.994v0C65.94,3.091,65.043,3.989,63.946,3.989z"/>
	<path class="st3" d="M63.946,19.989H0.994C-0.103,19.989-1,19.091-1,17.994v0C-1,16.897-0.103,16,0.994,16h62.952
		c1.097,0,1.994,0.897,1.994,1.994v0C65.94,19.091,65.043,19.989,63.946,19.989z"/>
	<path class="st3" d="M63.946,35.989H0.994C-0.103,35.989-1,35.091-1,33.994v0C-1,32.897-0.103,32,0.994,32h62.952
		c1.097,0,1.994,0.897,1.994,1.994v0C65.94,35.091,65.043,35.989,63.946,35.989z"/>
</g>
<g id="bars_copy">
	<path class="st4" d="M59.56,3.989H1.994C0.897,3.989,0,3.091,0,1.994v0C0,0.897,0.897,0,1.994,0L59.56,0
		c1.097,0,1.994,0.897,1.994,1.994v0C61.554,3.091,60.656,3.989,59.56,3.989z"/>
	<path class="st4" d="M59.56,19.989H1.994C0.897,19.989,0,19.091,0,17.994v0C0,16.897,0.897,16,1.994,16H59.56
		c1.097,0,1.994,0.897,1.994,1.994v0C61.554,19.091,60.656,19.989,59.56,19.989z"/>
	<path class="st4" d="M59.56,35.989H1.994C0.897,35.989,0,35.091,0,33.994v0C0,32.897,0.897,32,1.994,32H59.56
		c1.097,0,1.994,0.897,1.994,1.994v0C61.554,35.091,60.656,35.989,59.56,35.989z"/>
</g>
<g id="Layer_5">
	<g id="Layer_7">
		<path class="st5" d="M43.451,40.612c-0.006-0.006-0.006-0.007-0.055-0.068c0,0-0.154-0.193-0.4-0.486
			c-0.168-0.201-0.315-0.377-0.528-0.587c-0.135-0.133-0.313-0.298-0.558-0.447c-0.12-0.073-0.24-0.133-0.38-0.14
			c-0.045-0.002-0.149-0.002-0.272,0.027c-0.035,0.008-0.06,0.016-0.084,0.024c-0.204,0.064-0.27,0.13-0.305,0.105
			c-0.045-0.033,0.016-0.185,0.026-0.21c0.074-0.185,0.203-0.299,0.243-0.325c0.293-0.184,0.588-0.29,0.936-0.227
			c0.32,0.058,0.621,0.222,0.87,0.428c0.533,0.44,1.705,1.622,1.705,1.622C43.872,40.74,43.572,40.725,43.451,40.612z"/>
		<path class="st6" d="M42.808,41.362c0,0-1.178-1.662-1.481-1.763c-0.303-0.101-0.851,0.017-0.922,0.084
			c-0.071,0.067,0.164-0.505,0.518-0.623c0.354-0.118,0.539-0.202,0.842-0.067c0.303,0.135,0.926,0.707,1.128,0.943
			c0.202,0.236,0.775,0.943,0.775,0.943L42.808,41.362z"/>
		<path class="st6" d="M44.649,40.329c0,0-1.217-1.286-1.604-1.555c-0.387-0.269-0.935-0.522-1.015-0.505
			c-0.08,0.017,0.19-0.185,0.425-0.202s0.455-0.067,1.027,0.219c0.572,0.286,1.179,0.775,1.448,1.061
			c0.269,0.286,0.775,0.796,0.775,0.796L44.649,40.329z"/>
	</g>
	<g id="left_leg">
		<path class="st0" d="M16.372,41.957c0.249-0.357,0.425-0.208,1.211-0.78c0.518-0.377,0.971-0.842,1.331-1.372
			c0.818-1.203,0.887-1.103,0.909-1.121c0.971-0.798,1.808-0.308,3.067-1.186c0.223-0.156,0.371-0.284,0.665-0.547
			c0.866-0.776,0.99-1.154,1.491-1.28c0.199-0.05,0.475,0.008,1.026,0.124c0.862,0.182,1.293,0.272,1.582,0.576
			c0.383,0.402,0.373,1.008,0.318,1.59c-0.193,2.037-0.933,3.663-1.159,4.15c-0.497,1.07-1.181,2.429-2.097,3.963l-6.709,1.329
			c-0.611-0.971-0.987-1.828-1.217-2.43C16.297,43.682,15.898,42.636,16.372,41.957z"/>
	</g>
	<path id="body" class="st1" d="M17.872,54.698c0.955-1.647,0.972-3.687,0.605-5.556c-0.397-2.019-1.376-3.901-1.629-5.937
		c-0.286-2.302,0.171-4.652,0.826-6.854c0.428-1.441,0.935-3.026,0.311-4.394c-0.682-1.497-2.774-2.134-4.175-1.271
		c-1.371,0.844-1.79,2.599-2.566,4.009c-0.972,1.767-2.595,3.083-3.72,4.757c-1.49,2.216-2.03,4.957-2.037,7.627
		s0.482,5.313,0.891,7.952c0.497,3.215,0.901,6.529,2.429,9.401c2.227,4.187,6.703,6.922,11.387,7.661
		c4.428,0.699,8.98-0.217,13.424,0.367c2.116,0.278,4.321,0.926,6.433,0.294c2.049-0.614,3.699-2.178,5.242-3.585
		c0.787-0.718,1.639-1.453,2.687-1.646c0.734-0.135,1.487,0.012,2.232,0.068c4.158,0.308,10.764-3.209,10.321-8.068
		c-0.293-3.209-3.584-6.262-6.312-7.602c-2.764-1.358-5.888-1.508-8.911-1.565c-2.847-0.054-5.744-0.438-8.585-0.283
		c-2.057,0.112-4.761,0.252-6.723-0.52c-1.823-0.718-2.736-2.749-4.696-3.428c-0.817-0.283-1.692-0.347-2.555-0.401
		c-1.634-0.102-3.299-0.177-4.887,0.223"/>
	<g id="right_arm">
		<path class="st1" d="M34.747,70.889c0,0-2.385-2.288-2.276-4.095s1.895-8.552,3.23-10.961s3.697-7.208,3.697-7.597
			s-0.278-1.057-0.278-1.057s0.334-0.779,1.169-1.113c0.835-0.334,1.614-0.723,1.781-1.503c0.167-0.779-0.278-1.67,0-2.17
			s1.002-1.614,2.115-1.948c1.113-0.334,2.003-0.223,2.504,0.278s2.059,3.784,1.558,6.01c-0.501,2.226-3.061,7.325-3.228,8.838
			c-0.167,1.513-0.89,5.019-1.391,6.021c-0.501,1.002-0.89,1.614-0.89,1.614"/>
	</g>
	<g id="face">
		<path class="st7" d="M58.22,58.854c0.9,3.387-1.969,7.347-5.305,7.791c-1.559,0.208-3.393-0.329-4.627-1.588
			c-1.016-1.037-1.263-2.195-1.558-3.579c-0.348-1.631-1.104-5.17,0.76-6.702c1.171-0.962,2.828-0.682,4.084-0.469
			C52.671,54.492,57.267,55.27,58.22,58.854z"/>
		<path class="st8" d="M46.509,54.091c-0.408,0.289-0.974,0.754-0.872,1.101c0.076,0.259,0.485,0.317,1.038,0.457
			c0.321,0.081,1.784,0.467,2.781,1.134c0.751,0.502,0.24,1.014,1.662,1.633c0.683,0.297,1.751,0.861,2.018,0.92
			s0.594-0.03,0.653-0.267c0.059-0.237-0.356-1.395-0.386-1.781c-0.03-0.386-0.023-0.772-0.472-0.98
			c-0.595-0.276-2.151-0.652-2.467-0.737c-1.638-0.44-1.839-1.782-3.134-1.711C46.969,53.88,46.68,54.003,46.509,54.091z"/>
		<path class="st8" d="M51.947,66.804c-0.159-0.153-0.237-0.431-0.14-0.56c0.07-0.092,0.2-0.068,0.359-0.083
			c0.699-0.067,1.246-0.826,1.43-1.286c0.026-0.064,0.049-0.132,0.056-0.156c0.048-0.165,0.052-0.315,0.165-0.856
			c0.066-0.316,0.17-0.647,0.412-0.875c0.12-0.113,0.239-0.226,0.359-0.339c0.095-0.09,0.2-0.185,0.33-0.2
			c0.113-0.014,0.225,0.037,0.318,0.103c0.227,0.162,0.365,0.413,0.472,0.664c0.119,0.279,0.243,0.562,0.339,0.85
			c0.045,0.134,0.062,0.286-0.003,0.411c-0.051,0.097-0.145,0.163-0.236,0.224c-0.203,0.136-0.413,0.267-0.587,0.44
			c-0.19,0.188-0.281,0.442-0.456,0.642c-0.196,0.224-0.451,0.39-0.706,0.539c-0.462,0.272-0.67,0.443-0.858,0.511
			C53.042,66.892,52.311,67.155,51.947,66.804z"/>
		<g id="Layer_16">
			<path class="st8" d="M52.449,66.264c0.213,0.114,0.481,0.351,0.448,0.478c-0.17,0.655-2.738,0.017-3.105-0.084
				c-1.279-0.353-2.344-0.888-3.051-2.07c-0.433-0.724-1.366-2.55-1.363-7.156c0.001-2,0.176-2.606,0.56-2.758
				c0.339-0.134,0.803,0.097,1.065,0.371c0.498,0.52,0.37,1.338,0.365,1.718c-0.036,2.655-1.18,6.574,1.523,8.409
				c0.899,0.611,2.22,0.775,3.275,0.99C52.196,66.167,52.313,66.191,52.449,66.264z"/>
		</g>
		<g id="Layer_18">
			<path class="st8" d="M47.335,53.865c0.047-0.025,0.095-0.046,0.142-0.063c0.725-0.252,1.658-0.194,2.419-0.229
				c0.966-0.044,1.937-0.036,2.896,0.101c2.544,0.365,4.365,1.87,6.186,3.568c0.113,0.106,0.231,0.222,0.265,0.373
				c0.033,0.146-0.018,0.298-0.076,0.436c-0.166,0.397-0.72,0.768-0.754,1.208c-0.042,0.536,0.612,0.68,0.791,1.131
				c0.085,0.215,0.054,0.402,0.043,0.561c-0.039,0.592-0.334,1.723-1.03,2.683c-1.405,1.94-4.135,2.752-4.551,2.871
				c0.261-0.122,0.529-0.259,0.803-0.413c1.726-0.972,3.07-2.365,3.377-4.399c0.051-0.334,0.08-0.588,0.078-0.614
				c-0.106-1.257-0.371-2.592-1.131-3.63c-0.792-1.081-2.324-2.021-3.549-2.513c-1.103-0.443-2.324-0.333-3.486-0.349
				c-0.536-0.007-1.078-0.072-1.61-0.127c-0.298-0.031-0.611-0.048-0.904-0.117C46.866,54.252,47.075,54.004,47.335,53.865z"/>
		</g>
		<g id="Layer_20">
			<path class="st8" d="M51.823,61.432c0.114-0.021,0.231-0.073,0.319-0.15c0.227-0.2-0.002-0.435,0.024-0.672
				c0.017-0.162,0.125-0.319,0.272-0.39c0.213-0.102,0.401,0.039,0.506,0.222c0.183,0.319,0.231,0.683,0.329,1.031
				c0.082,0.289,0.13,0.69-0.22,0.824c-0.095,0.036-0.206,0.032-0.293-0.02c-0.252-0.154-0.267-0.709-0.674-0.472
				c-0.091,0.053-0.195,0.119-0.295,0.084c-0.083-0.028-0.131-0.118-0.149-0.204c-0.016-0.075-0.01-0.165,0.052-0.211
				C51.724,61.45,51.761,61.443,51.823,61.432z"/>
			<path class="st8" d="M50.509,59.011c0.009,0,0.017,0.07,0.019,0.079c0.451,1.829,0.967,3.817,1.924,5.474
				c0.016,0.029,0.091,0.156,0.064,0.175c-0.024,0.017-0.117-0.059-0.189-0.117c-0.814-0.663-1.287-1.636-1.535-2.607
				c-0.112-0.44-0.192-0.895-0.243-1.347c-0.038-0.336-0.009-0.256-0.056-0.788c0,0-0.028-0.321-0.004-0.739
				C50.498,59.016,50.507,59.011,50.509,59.011z"/>
		</g>
		<g id="Layer_21">
			<path d="M52.33,58.535L52.33,58.535c-0.234,0.135-0.535,0.054-0.67-0.179l-0.185-0.32c-0.135-0.234-0.054-0.535,0.179-0.67h0
				c0.234-0.135,0.535-0.054,0.67,0.179l0.185,0.32C52.644,58.098,52.564,58.4,52.33,58.535z"/>
			<path d="M54.849,64.601L54.849,64.601c-0.258,0.078-0.533-0.07-0.611-0.328l-0.107-0.354c-0.078-0.258,0.07-0.533,0.328-0.611
				l0,0c0.258-0.078,0.533,0.07,0.611,0.328l0.107,0.354C55.255,64.248,55.107,64.523,54.849,64.601z"/>
		</g>
	</g>
	<g id="left_hand">
		<g id="Layer_15">
			<path class="st5" d="M44.424,30.025c0,0,1.106,0.676,1.339,1.812c0.233,1.136,0.29,1.522,0.151,1.982s-0.21,0.643-0.21,0.643
				s0.549-0.276,0.696-0.735s0.43-0.906,0.184-1.912c-0.246-1.006-0.481-1.373-0.922-1.79c-0.441-0.416-0.53-0.435-0.53-0.435
				L44.424,30.025z"/>
		</g>
		<path class="st6" d="M44.404,31.668c0.113,0.071,0.208,0.159,0.301,0.264c0.27,0.304,0.527,0.652,0.57,1.057
			c0.041,0.393-0.07,0.79-0.123,1.177c0.195-0.041,0.361-0.177,0.473-0.342c0.112-0.165,0.176-0.358,0.225-0.552
			c0.161-0.647,0.008-1.337-0.289-1.921c-0.252-0.494-0.753-1.229-1.313-1.401c-0.064,0.317-0.056,0.643-0.084,0.965
			c-0.013,0.152-0.084,0.397-0.048,0.546c0.032,0.129,0.019,0.07,0.159,0.136C44.32,31.619,44.363,31.643,44.404,31.668z"/>
		<path class="st6" d="M45.221,29.609c0.028-0.036,0.756,0.767,0.826,0.839c0.346,0.357,0.554,0.834,0.639,1.319
			c0.07,0.401,0.062,0.811,0.01,1.213c-0.024,0.187-0.055,0.371-0.11,0.551c-0.03,0.097-0.061,0.193-0.089,0.29
			c-0.012,0.042-0.031,0.24-0.061,0.261c0.156-0.111,0.377-0.297,0.557-0.583c0.637-1.012,0.12-2.248,0.027-2.469
			c-0.437-1.044-1.31-1.532-1.6-1.679C45.358,29.44,45.288,29.524,45.221,29.609z"/>
		<path class="st1" d="M38.08,31.774c0.412-0.76,0.85-1.287,1.163-1.618c0.354-0.375,1.854-1.8,3.811-1.944
			c0.484-0.036,0.962,0.088,1.406,0.291c0.33,0.151,0.98,0.406,1.133,0.799c0.012,0.031,0.015,0.059,0.01,0.085
			c-0.064,0.334-0.836,0.303-1.16,0.776c-0.126,0.184-0.219,0.505-0.081,1.102c0.333,0.794,0.258,1.118,0.147,1.27
			c-0.486,0.66-2.431-0.915-5.547-0.829C38.579,31.717,38.269,31.75,38.08,31.774z"/>
	</g>
	<g id="left_foot">
		<g id="Layer_17">
			<path class="st9" d="M25.523,31.116c0.069-0.052,0.521-0.382,1.13-0.26c0.069,0.014,0.617,0.133,0.935,0.662
				c0.277,0.462,0.194,0.927,0.169,1.052c-0.027,0.138-0.07,0.249-0.104,0.325c-0.011-0.131-0.047-0.34-0.182-0.546
				c-0.088-0.134-0.185-0.217-0.247-0.267c-0.598-0.481-1.559-0.785-1.559-0.785l0,0C25.618,31.238,25.57,31.177,25.523,31.116z"/>
		</g>
		<path class="st10" d="M25.106,31.992c0.239-0.039,0.47-0.155,0.714-0.155c0.247,0,0.482,0.121,0.664,0.289
			c0.251,0.233,0.391,0.539,0.571,0.822c-0.079-0.125-0.085-0.374-0.121-0.517c-0.077-0.309-0.136-0.827-0.384-1.053
			c-0.088-0.08-0.204-0.122-0.321-0.139c-0.266-0.039-0.587-0.021-0.848,0.04c-0.154,0.036-0.305,0.098-0.432,0.194
			c-0.171,0.129-0.154,0.256-0.097,0.455c0.006,0.022,0.014,0.045,0.032,0.059c0.018,0.015,0.044,0.017,0.067,0.017
			C25.003,32.005,25.054,32,25.106,31.992z"/>
		<path class="st11" d="M22.369,31.836c-0.115-0.306,0.937-0.86,1.132-0.992c0.494-0.335,0.999-0.654,1.528-0.929
			c1.011-0.526,1.993,0.205,2.592,1.019c-0.504-0.525-1.292-0.647-1.904-0.307c-0.257,0.142-0.467,0.36-0.606,0.618
			c-0.072,0.134-0.125,0.278-0.156,0.427c-0.026,0.122,0.019,0.365-0.029,0.465c-0.088,0.18-0.877,0.02-1.103-0.005
			c-0.427-0.047-0.851-0.11-1.273-0.19c-0.049-0.009-0.1-0.02-0.139-0.05C22.389,31.873,22.376,31.855,22.369,31.836z"/>
	</g>
	<g>
	</g>
	<g>
	</g>
	<g>
	</g>
	<g>
	</g>
	<g>
	</g>
</g>
</svg>
